<svg id="Capa_1" data-name="Capa 1" xmlns="http://www.w3.org/2000/svg" viewBox="0 0 39.83 39.83"><defs><style>.cls-1{fill:#fff;}.cls-2{fill:#1b162d;}</style></defs><title>be-1</title><circle class="cls-1" cx="19.91" cy="19.91" r="19.91"/><path class="cls-2" d="M2.66,19.91A17.26,17.26,0,1,1,19.89,37.18,17.26,17.26,0,0,1,2.66,19.91ZM18.17,19s0,0,0,0a1.89,1.89,0,0,1,.21-.09A2.43,2.43,0,0,0,20,17.11a3.66,3.66,0,0,0-2.8-4.58,5.31,5.31,0,0,0-1.2-.11H8.86c-.32,0-.38.1-.38.39q0,6.81,0,13.62c0,.34.11.39.42.39H16a5.16,5.16,0,0,0,1.11-.11,3.87,3.87,0,0,0,3.35-3,5.39,5.39,0,0,0,.09-1.92C20.29,20.09,19.61,19.28,18.17,19Zm9.75,3.35h3.41c.27,0,.36-.09.37-.35a8.68,8.68,0,0,0-.15-2,4.41,4.41,0,0,0-3.31-3.75,6.36,6.36,0,0,0-2-.17,4.91,4.91,0,0,0-3.72,1.72,6.14,6.14,0,0,0-1.3,4.84,4.64,4.64,0,0,0,2.65,3.89,7,7,0,0,0,3.9.51,5.06,5.06,0,0,0,2.17-.68,3.27,3.27,0,0,0,1.66-2.73c0-.25,0-.37-.31-.36-.64,0-1.27,0-1.9,0-.2,0-.31,0-.35.26a1.4,1.4,0,0,1-1,1.07,3.32,3.32,0,0,1-1.79.19,2.21,2.21,0,0,1-2-2.09c0-.29,0-.39.33-.39C25.67,22.34,26.79,22.33,27.92,22.33ZM26.47,15h2.67c.28,0,.36-.09.35-.35s0-.78,0-1.16c0-.17,0-.27-.23-.27H23.8c-.19,0-.25.07-.25.25,0,.4,0,.8,0,1.2s.08.33.33.33Z"/><path class="cls-2" d="M14.06,20.41h1.75a1.51,1.51,0,0,1,1.6,1.28,3.17,3.17,0,0,1,.08.69,1.64,1.64,0,0,1-1.84,1.87c-1.18,0-2.35,0-3.53,0-.26,0-.36-.05-.35-.34,0-1.06,0-2.11,0-3.17,0-.25.06-.34.32-.34C12.75,20.42,13.41,20.41,14.06,20.41Z"/><path class="cls-2" d="M14,15h1.74a1,1,0,0,1,1.16.91,2.9,2.9,0,0,1-.07,1.57.94.94,0,0,1-1,.71H12c-.21,0-.26-.08-.26-.27,0-.89,0-1.78,0-2.68,0-.21.08-.26.27-.26Z"/><path class="cls-2" d="M26.52,20.41c-.69,0-1.37,0-2.05,0-.26,0-.3-.07-.23-.32a2.52,2.52,0,0,1,3.14-1.84,2.12,2.12,0,0,1,1.51,1.95c0,.24-.15.2-.28.2Z"/></svg>