<svg id="Capa_1" data-name="Capa 1" xmlns="http://www.w3.org/2000/svg" viewBox="0 0 39.83 39.83"><defs><style>.cls-1{fill:#fff;}.cls-2{fill:#1b162d;}</style></defs><title>git-1</title><circle class="cls-1" cx="19.91" cy="19.91" r="19.91"/><path class="cls-2" d="M16.83,27.91a3.9,3.9,0,0,0-.57.73,4.2,4.2,0,0,0-.53,1.5.15.15,0,0,1-.1.13,4.58,4.58,0,0,1-1.58.35,4.61,4.61,0,0,1-1.05,0,3,3,0,0,1-1.76-1.08c-.27-.32-.46-.69-.7-1a3.84,3.84,0,0,0-1.88-1.42A2.39,2.39,0,0,0,7.53,27a.32.32,0,0,0-.19.1c-.07.07-.07.13,0,.23a1.38,1.38,0,0,0,.67.59,2.39,2.39,0,0,1,.89.75,8.7,8.7,0,0,1,1,1.7c0,.09.07.19.11.28A2.82,2.82,0,0,0,11.3,32a4.15,4.15,0,0,0,1.45.45,9.67,9.67,0,0,0,2,.09c.26,0,.51-.08.77-.12.08,0,.11,0,.11.08q0,1.55,0,3.09a.85.85,0,0,1-.82.84,1.75,1.75,0,0,1-.72-.14,16.94,16.94,0,0,1-7.16-4.83,17.34,17.34,0,0,1-2.77-4.16,16.1,16.1,0,0,1-1.34-4.6,18.19,18.19,0,0,1-.12-3.9A16.82,16.82,0,0,1,5,11.52,13.84,13.84,0,0,1,6.26,9.77,18.45,18.45,0,0,1,10.53,6,17.07,17.07,0,0,1,20.77,3.18,17.16,17.16,0,0,1,30.9,7.06a16.67,16.67,0,0,1,4.52,5.74,17,17,0,0,1,1.48,4.5,17.16,17.16,0,0,1,.25,3.92,16.66,16.66,0,0,1-1.25,5.7,17.58,17.58,0,0,1-2.68,4.41A16.52,16.52,0,0,1,29,35a17.14,17.14,0,0,1-3.49,1.58,1.14,1.14,0,0,1-.66,0,.9.9,0,0,1-.62-.84V32.85c0-.65,0-1.3,0-2a4.5,4.5,0,0,0-.43-2A3.52,3.52,0,0,0,23.1,28a.18.18,0,0,1-.08-.09l.87-.12A9.46,9.46,0,0,0,28,26.23a5.89,5.89,0,0,0,2.1-2.63,9.52,9.52,0,0,0,.74-3.06,10.69,10.69,0,0,0,0-2A6.15,6.15,0,0,0,29.31,15a.3.3,0,0,1-.07-.37,5.11,5.11,0,0,0,.26-2.39A8.28,8.28,0,0,0,29,10.37a.16.16,0,0,0-.14-.11,2,2,0,0,0-1,0,9.57,9.57,0,0,0-1.64.63,12,12,0,0,0-2,1.09.22.22,0,0,1-.16,0,14.28,14.28,0,0,0-3-.5,18.08,18.08,0,0,0-2.85,0,15.45,15.45,0,0,0-2.62.46.21.21,0,0,1-.2,0,11.5,11.5,0,0,0-2.62-1.43,5.57,5.57,0,0,0-1.56-.38c-.43,0-.44,0-.58.39A7.13,7.13,0,0,0,10.29,13a5.07,5.07,0,0,0,.34,1.73.14.14,0,0,1,0,.17A7.12,7.12,0,0,0,9.11,18,9.76,9.76,0,0,0,9,20.16a9.77,9.77,0,0,0,.36,2.28,7.55,7.55,0,0,0,1.08,2.36A6.68,6.68,0,0,0,13,26.94a10.47,10.47,0,0,0,2.78.83C16.13,27.83,16.47,27.87,16.83,27.91Z"/><path class="cls-2" d="M12.35,30.76l.25,0c.17,0,.27.14.24.27a.31.31,0,0,1-.36.22l-.24-.08c-.14-.05-.17-.11-.15-.21S12.2,30.75,12.35,30.76Z"/><path class="cls-2" d="M11.6,30.41a.19.19,0,0,1-.24.19.57.57,0,0,1-.39-.25c0-.06-.11-.13-.05-.21a.31.31,0,0,1,.26-.16A.55.55,0,0,1,11.6,30.41Z"/><path class="cls-2" d="M15.25,30.71l.13,0a.24.24,0,0,1,.16.31q0,.19-.27.15a1,1,0,0,0-.18,0c-.1,0-.2,0-.24-.12a.24.24,0,0,1,.08-.29A.47.47,0,0,1,15.25,30.71Z"/><path class="cls-2" d="M13.87,31a.59.59,0,0,1,.27.05.2.2,0,0,1,.13.18.23.23,0,0,1-.11.2.58.58,0,0,1-.53,0,.21.21,0,0,1-.07-.22.18.18,0,0,1,.13-.16A.55.55,0,0,1,13.87,31Z"/><path class="cls-2" d="M10.32,29a.23.23,0,0,1,.14,0,1,1,0,0,1,.24.32.15.15,0,0,1,0,.18.18.18,0,0,1-.21.06.63.63,0,0,1-.35-.31C10,29.14,10.13,29,10.32,29Z"/><path class="cls-2" d="M9.66,28.18c.11,0,.34.23.33.34a.15.15,0,0,1-.09.14.18.18,0,0,1-.2,0,1,1,0,0,1-.19-.25A.15.15,0,0,1,9.66,28.18Z"/><path class="cls-2" d="M9.08,28a.6.6,0,0,1-.33-.16c-.05-.05,0-.09,0-.14a.31.31,0,0,1,.49.06A.18.18,0,0,1,9.08,28Z"/></svg>