<svg id="Capa_1" data-name="Capa 1" xmlns="http://www.w3.org/2000/svg" viewBox="0 0 31.65 30.72"><defs><style>.cls-1{fill:#1b162d;}</style></defs><title>git</title><path class="cls-1" d="M13,22.69a3.66,3.66,0,0,0-.52.67A3.8,3.8,0,0,0,12,24.74a.12.12,0,0,1-.09.11,4,4,0,0,1-1.45.33,4.41,4.41,0,0,1-1,0,2.78,2.78,0,0,1-1.61-1c-.25-.29-.42-.63-.65-.93a3.48,3.48,0,0,0-1.72-1.3,2.24,2.24,0,0,0-1-.09.26.26,0,0,0-.17.09c-.07.07-.07.12,0,.21a1.15,1.15,0,0,0,.61.54,2.37,2.37,0,0,1,.82.69,8.23,8.23,0,0,1,1,1.56c0,.08.06.17.1.26a2.65,2.65,0,0,0,1.17,1.26,4.06,4.06,0,0,0,1.32.41,9.56,9.56,0,0,0,1.85.08c.24,0,.47-.08.7-.12.07,0,.1,0,.1.08,0,.95,0,1.89,0,2.84a.79.79,0,0,1-.75.77,1.85,1.85,0,0,1-.66-.13,15.53,15.53,0,0,1-6.56-4.43,16,16,0,0,1-2.55-3.82A14.74,14.74,0,0,1,.16,17.91a17.16,17.16,0,0,1-.11-3.58A15.37,15.37,0,0,1,2.12,7.67,11.74,11.74,0,0,1,3.31,6.06,16.46,16.46,0,0,1,7.22,2.57a15.84,15.84,0,0,1,18.67,1A15.26,15.26,0,0,1,30,8.83,15.89,15.89,0,0,1,31.4,13a16.68,16.68,0,0,1,.23,3.6,15.44,15.44,0,0,1-1.15,5.23,16.37,16.37,0,0,1-2.46,4,15.18,15.18,0,0,1-3.89,3.39,16,16,0,0,1-3.21,1.45,1.11,1.11,0,0,1-.6,0,.83.83,0,0,1-.57-.77v-2.7c0-.6,0-1.19,0-1.79a4.19,4.19,0,0,0-.4-1.81,2.83,2.83,0,0,0-.61-.84.71.71,0,0,1-.07-.09l.79-.11a8.59,8.59,0,0,0,3.81-1.43,5.37,5.37,0,0,0,1.93-2.41,8.76,8.76,0,0,0,.68-2.81,10.82,10.82,0,0,0,0-1.8,5.74,5.74,0,0,0-1.44-3.26.29.29,0,0,1-.07-.34,4.53,4.53,0,0,0,.24-2.19,7.41,7.41,0,0,0-.42-1.73.19.19,0,0,0-.12-.11,2.08,2.08,0,0,0-.93,0,8.26,8.26,0,0,0-1.5.57,11.5,11.5,0,0,0-1.82,1,.19.19,0,0,1-.15,0,12.66,12.66,0,0,0-2.74-.46,17.49,17.49,0,0,0-2.61,0,13.75,13.75,0,0,0-2.39.42.18.18,0,0,1-.19,0,10.38,10.38,0,0,0-2.41-1.3,4.69,4.69,0,0,0-1.42-.35c-.4,0-.41,0-.54.35A6.8,6.8,0,0,0,7,9a4.53,4.53,0,0,0,.31,1.58.13.13,0,0,1,0,.16,6.51,6.51,0,0,0-1.37,2.89,7.65,7.65,0,0,0-.1,2,8.84,8.84,0,0,0,.33,2.1,6.82,6.82,0,0,0,1,2.16,6.24,6.24,0,0,0,2.36,2,9.24,9.24,0,0,0,2.55.76Z"/><path class="cls-1" d="M8.89,25.3l.23,0c.15,0,.25.13.22.25a.27.27,0,0,1-.33.2l-.22-.07c-.13,0-.16-.1-.14-.2S8.75,25.3,8.89,25.3Z"/><path class="cls-1" d="M8.2,25a.17.17,0,0,1-.22.16.5.5,0,0,1-.36-.22c0-.06-.1-.12,0-.2a.3.3,0,0,1,.24-.14A.5.5,0,0,1,8.2,25Z"/><path class="cls-1" d="M11.55,25.26l.11,0a.2.2,0,0,1,.15.28c0,.12-.11.16-.25.14s-.11,0-.16,0-.18,0-.22-.1a.23.23,0,0,1,.08-.27A.42.42,0,0,1,11.55,25.26Z"/><path class="cls-1" d="M10.28,25.48a.69.69,0,0,1,.25,0,.21.21,0,0,1,.12.17.2.2,0,0,1-.11.18.51.51,0,0,1-.48,0,.19.19,0,0,1-.07-.2.17.17,0,0,1,.12-.14A.35.35,0,0,1,10.28,25.48Z"/><path class="cls-1" d="M7,23.69a.18.18,0,0,1,.13,0,.77.77,0,0,1,.22.29.14.14,0,0,1,0,.17c-.06,0-.12.09-.2,0A.61.61,0,0,1,6.82,24C6.75,23.82,6.85,23.69,7,23.69Z"/><path class="cls-1" d="M6.42,22.94a.48.48,0,0,1,.31.31.13.13,0,0,1-.09.12.14.14,0,0,1-.18,0,1,1,0,0,1-.18-.23A.14.14,0,0,1,6.42,22.94Z"/><path class="cls-1" d="M5.89,22.74a.64.64,0,0,1-.31-.15.08.08,0,0,1,0-.12.29.29,0,0,1,.46,0A.18.18,0,0,1,5.89,22.74Z"/></svg>