<svg id="Capa_1" data-name="Capa 1" xmlns="http://www.w3.org/2000/svg" viewBox="0 0 39.83 39.83"><defs><style>.cls-1{fill:#fff;}.cls-2{fill:#1b162d;}</style></defs><title>in-1</title><circle class="cls-1" cx="19.91" cy="19.91" r="19.91"/><path class="cls-2" d="M19.9,37.16A17.25,17.25,0,1,1,37.17,20.24,17.22,17.22,0,0,1,19.9,37.16Zm1.46-19.5c0-.53,0-.92,0-1.31S21.29,16,21,16c-1,0-2,0-2.92,0-.3,0-.37.08-.37.37,0,3.84,0,7.67,0,11.51,0,.3.1.36.38.36.92,0,1.84,0,2.76,0,.36,0,.49-.07.49-.47,0-2,0-4.05,0-6.07a3.46,3.46,0,0,1,.28-1.42,2.11,2.11,0,0,1,2.27-1.21,1.85,1.85,0,0,1,1.71,1.58,4.69,4.69,0,0,1,.12,1.12v6.06c0,.21,0,.41.3.41,1.06,0,2.12,0,3.17,0,.2,0,.27-.06.27-.26,0-2.73.08-5.47,0-8.2A4.3,4.3,0,0,0,23,16.18,4.87,4.87,0,0,0,21.36,17.66ZM15.3,22.19c0-1.93,0-3.85,0-5.77,0-.31-.07-.41-.39-.4-1,0-2,0-3.05,0-.25,0-.34.06-.34.32q0,5.79,0,11.58c0,.3.12.34.37.33,1,0,2,0,3,0,.35,0,.4-.12.4-.43C15.3,26,15.3,24.07,15.3,22.19Zm.34-10A2.28,2.28,0,0,0,13.4,9.92a2.25,2.25,0,0,0,0,4.5A2.29,2.29,0,0,0,15.64,12.17Z"/></svg>