<svg id="Capa_1" data-name="Capa 1" xmlns="http://www.w3.org/2000/svg" viewBox="0 0 1388.22 1748.75"><defs><style>.cls-1{fill:#7655ff;}.cls-2{fill:#f9cab5;}.cls-3{fill:#393a3a;}.cls-4{fill:#757576;}.cls-5{fill:#353435;}.cls-6{fill:#0b0b0b;}</style></defs><title>aes</title><circle class="cls-1" cx="694.11" cy="1054.64" r="694.11"/><path class="cls-2" d="M963.56,979.86c-4.23-4.45-6.68-8.85-5.88-12.75,2.87-3.14,5.37-5.62,7.51-7.57.56-.26,1.15-.51,1.78-.76C1003,944.64,1025.65,934,1025.65,934c13.18-23.36,18.66-63.68,20.76-85.56l1.87,0s16.2,3.62,40.63,15.52h0a312.9,312.9,0,0,1,41.73,24.59,61.36,61.36,0,0,1,7.65,6.34c40.16,38.85,55.08,145.55,63.41,210.18,8.83,68.58-114.54,112.42-150.6,125.14s-7.42-122.66-7.42-122.66,4.45-20.88-5.16-49.5c-5-14.8-13.71-31.67-28.78-48.78,0,0-2.55-1.18-6.52-3.19C993,1001,973.44,990.28,963.56,979.86Z"/><path class="cls-3" d="M1138.29,895a61.36,61.36,0,0,0-7.65-6.34A312.9,312.9,0,0,0,1088.91,864h0c-.62-1.82-67.07-199.27-126.89-181.67C901.92,700,380.15,949.59,384.39,972.92c0,0,135.75,286.34,155.54,311.08s498.58-225.89,498.58-225.89h0c9.61,28.62,5.16,49.5,5.16,49.5C883.54,1219.67,493.27,1361.07,460,1365.31c-33,4.21-92.93-102-93.85-103.65v0c-1.85-7.91-3-13.5-3.17-15.81-1.24-15.74,15.9-27.4,23.86-43.13.08-.15.15-.3.21-.44a31,31,0,1,0-13.68-11.64c-9.64-.75-22.53.06-34,.06-24.51,0-51.85-134.8-56.56-162.72-1.91-11.31-7.22-13.46-12.86-12l-.1-.41c-5.66-11.81-4.95-28.49-4.95-28.49,4.95-60.8,618.63-350,702.06-367.56C1050,602,1137.47,892.2,1138.29,895ZM475.35,1269.51a5.66,5.66,0,0,0,2.8-7.49l-5-10.94a5.65,5.65,0,0,0-7.49-2.8l-44.39,20.23a5.65,5.65,0,0,0-2.8,7.49l5,10.94a5.66,5.66,0,0,0,7.49,2.8Zm-14.67-32.18a5.64,5.64,0,0,0,2.8-7.49l-5-10.94a5.65,5.65,0,0,0-7.49-2.8l-44.39,20.23a5.65,5.65,0,0,0-2.81,7.49l5,10.94a5.66,5.66,0,0,0,7.49,2.8Zm-67.47-143a5.64,5.64,0,0,0,2.8-7.49l-5-10.94a5.65,5.65,0,0,0-7.49-2.8l-44.39,20.23a5.65,5.65,0,0,0-2.81,7.49l5,10.94a5.66,5.66,0,0,0,7.49,2.8Zm-14.66-32.18a5.65,5.65,0,0,0,2.8-7.49l-5-10.94a5.65,5.65,0,0,0-7.49-2.8l-44.4,20.23a5.66,5.66,0,0,0-2.8,7.49l5,10.94a5.66,5.66,0,0,0,7.49,2.8Z"/><path class="cls-4" d="M1088.91,864c-24.43-11.9-40.63-15.52-40.63-15.52l-1.87,0c.88-9.24,1.16-15.19,1.16-15.19a12.21,12.21,0,0,0-6.89-7.08c.29-2.23.53-4.25.53-4.93,0-1.77-9.37-11.67-17.33-4.42l-1.19,4.15c-9.32-.62-9.76,3.8-9.76,3.8s-1.51,6-3.94,15.37h0s-62.16-3.7-70.29,58.16S932.33,998,950,976.1c2.81-3.48,5.36-6.45,7.68-9-.8,3.9,1.65,8.3,5.88,12.75-.19,1-7,36.94-6,40.08s6.17,23,6,29.69,3.4,11.67,8,6,21.91-17,26.15-30.05a190.13,190.13,0,0,0,5.5-19.45c4,2,6.52,3.19,6.52,3.19,15.07,17.11,23.81,34,28.78,48.78h0S559.73,1308.75,539.93,1284,384.39,972.92,384.39,972.92C380.15,949.59,901.92,700,962,682.34,1021.84,664.74,1088.29,862.19,1088.91,864Z"/><path class="cls-5" d="M1047.57,833.28s-.28,6-1.16,15.19c-2.1,21.88-7.58,62.2-20.76,85.56,0,0-22.62,10.61-58.68,24.75-.63.25-1.22.5-1.78.76,7-6.39,10.26-7.12,10.26-7.12,6.55-9.83,25.32-80.51,33.54-112.25,2.43-9.39,3.94-15.37,3.94-15.37a35.16,35.16,0,0,0,7.37,4.54,46.26,46.26,0,0,0,19.31,4.48A48.41,48.41,0,0,0,1047.57,833.28Z"/><path class="cls-6" d="M1040.68,826.2a12.21,12.21,0,0,1,6.89,7.08,48.41,48.41,0,0,1-8,.54S1040.21,829.74,1040.68,826.2Z"/><path class="cls-5" d="M1041.21,821.27c0,.68-.24,2.7-.53,4.93-.47,3.54-1.07,7.62-1.07,7.62a46.26,46.26,0,0,1-19.31-4.48l2.39-8.34,1.19-4.15C1031.84,809.6,1041.21,819.5,1041.21,821.27Z"/><path class="cls-6" d="M1022.69,821l-2.39,8.34a35.16,35.16,0,0,1-7.37-4.54S1013.37,820.38,1022.69,821Z"/><path class="cls-2" d="M1009,840.17h0c-8.22,31.74-27,102.42-33.54,112.25,0,0-3.23.73-10.26,7.12-4.62,2.14-6.93,4.73-7.51,7.57-2.32,2.54-4.87,5.51-7.68,9-17.67,21.92-19.44-15.91-11.31-77.77S1009,840.17,1009,840.17Z"/><path class="cls-5" d="M1003.22,1006.14a190.13,190.13,0,0,1-5.5,19.45c-4.24,13.08-21.56,24.39-26.15,30.05s-8.14.71-8-6-5.08-26.51-6-29.69,5.84-39,6-40.08C973.44,990.28,993,1001,1003.22,1006.14Z"/><path class="cls-4" d="M478.15,1262a5.66,5.66,0,0,1-2.8,7.49L431,1289.74a5.66,5.66,0,0,1-7.49-2.8l-5-10.94a5.65,5.65,0,0,1,2.8-7.49l44.39-20.23a5.65,5.65,0,0,1,7.49,2.8Z"/><path class="cls-4" d="M463.48,1229.84a5.64,5.64,0,0,1-2.8,7.49l-44.39,20.23a5.66,5.66,0,0,1-7.49-2.8l-5-10.94a5.65,5.65,0,0,1,2.81-7.49L451,1216.1a5.65,5.65,0,0,1,7.49,2.8Z"/><path class="cls-2" d="M387.08,1202.26c-.06.14-.13.29-.21.44-8,15.73-25.1,27.39-23.86,43.13.18,2.31,1.32,7.9,3.17,15.81v0c10.74,45.89,45.5,170,57.56,190.14,14.14,23.57,14.61,44.31-29.22,50s-147.53,17.44-165-24-62.69-185.24-34.41-305.43S252.65,1028,252.65,1028s9-9.89,17.31-12c5.64-1.46,11,.69,12.86,12,4.71,27.92,32.05,162.72,56.56,162.72,11.49,0,24.38-.81,34-.06C384.15,1191.46,390.85,1194.24,387.08,1202.26Z"/><path class="cls-4" d="M399.42,1143a30.93,30.93,0,1,1-12.34,59.3c3.77-8-2.93-10.8-13.68-11.64a30.92,30.92,0,0,1,26-47.66Z"/><path class="cls-4" d="M396,1086.84a5.64,5.64,0,0,1-2.8,7.49l-44.39,20.23a5.66,5.66,0,0,1-7.49-2.8l-5-10.94a5.65,5.65,0,0,1,2.81-7.49l44.39-20.23a5.65,5.65,0,0,1,7.49,2.8Z"/><path class="cls-4" d="M381.35,1054.66a5.65,5.65,0,0,1-2.8,7.49l-44.39,20.23a5.66,5.66,0,0,1-7.49-2.8l-5-10.94a5.66,5.66,0,0,1,2.8-7.49l44.4-20.23a5.65,5.65,0,0,1,7.49,2.8Z"/></svg>