<svg id="Capa_1" data-name="Capa 1" xmlns="http://www.w3.org/2000/svg" viewBox="0 0 1388.22 1748.75"><defs><style>.cls-1{fill:#ffde73;}.cls-2{fill:#58c3f1;}.cls-3{fill:#bc9264;}.cls-4{fill:#e84562;}.cls-5{fill:#76ff96;}.cls-6{fill:#303031;}.cls-7{fill:#a27f5b;}</style></defs><title>ux</title><circle class="cls-1" cx="694.11" cy="1054.64" r="694.11"/><path class="cls-2" d="M1229.22,895.81c4,12.66,35.15,214.29,7.29,233.53s-163.69,35.06-163.69,35.06c-24-78.15-53-145.4-82.37-142.51,0,0-7.62,1.2-9.62,3.08-4.1-4.6-8.54-9.33-13.26-14,0-1.47,3.07-81.6,12.27-91.32S1225.24,883.14,1229.22,895.81Z"/><path class="cls-3" d="M920.94,1017.51l.86-.26c-9.28-25.54-51.06-69.65-1.65-43.11,17.25,9.26,33.53,22.92,47.42,36.79,4.72,4.71,9.16,9.44,13.26,14,2-1.88,9.62-3.08,9.62-3.08,29.35-2.89,58.39,64.36,82.37,142.51,26.16,85.21,46.31,183.38,54.26,217.63,15.26,65.66-82.91,84.89-151.88,119.38s-45.1-32.5-56.37-124c-5.26-42.71-23.24-72.56-44.55-93.41-24.36-23.82-53.08-35.88-72.18-41.89-35.82-11.27-59-14.59-6-51.07,47.33-32.54,34.51-70.35,31.18-78.14v0c-2.32-8.89-7.54-18.65-14.33-28.66-27.28-40.24-79.85-84.44-70.56-92.14,24.22-14.26,132,96.17,139.29,71.3s-55.72-91.53-44.44-97.4C861.07,958.94,897.18,991.84,920.94,1017.51Z"/><path class="cls-4" d="M827.29,1112.84v0c3.33,7.79,16.15,45.6-31.18,78.14-53,36.48-29.84,39.8,6,51.07,19.1,6,47.82,18.07,72.18,41.89,0,0,2.76,9.19,2.1,36.38-.65,26.34-57.93,27.16-135.07,39.85q-3.73.61-7.53,1.27c-80.91,13.93-185,49.08-159.18,9.28,12.87-19.8,24.1-82.29,32.5-141.26h0c8.48-59.57,14.07-115.55,15.58-120.38,3-9.62,190.27-24.93,190.27-24.93C819.75,1094.19,825,1104,827.29,1112.84Z"/><path class="cls-5" d="M751,1435.09c2.64,34.49-164.49,43.11-206.27,51.73s-86.89,21.89-69.64-13.27S502.31,1264,503,1254.69s102.88-25,104.12-25.2c-8.4,59-19.63,121.46-32.5,141.26-25.86,39.8,78.27,4.65,159.18-9.28q3.79-.66,7.53-1.27S748.38,1400.6,751,1435.09Z"/><path class="cls-6" d="M406.4,754.11c-40.35-32.83-85.82-71.86-85.82-81.09,0-16.58,24.54-37.14,24.54-37.14L425.92,702l25.65,21c2.66,3.81,5.31,13.93,5.31,13.93,17.41,14.91,61.68,55.7,63.17,37.3L643.58,872,670,910.46s-.75,10.7-8.21,9-36.81-6.3-36.81-6.3l-87.26-63.83h0c7.86-16.75,13-32.95,9.67-43-4.37-13.1-46.81,2.24-79.89-3.72h0v-.07S438.59,780.29,406.4,754.11Z"/><path class="cls-7" d="M629.07,706.82c7.84-19.39,27.77-32.63,27.77-32.63,24.38-.51-3.48,61.68-2.48,86.06S643.58,872,643.58,872L520.05,774.17c.91-11.19-17.68-49.59-37.53-79.55,0,0,44.33-38.5,59.91-18.94,5.15,6.47,11,16.62,15.72,27.94,4-3.23,46.74-37.58,55.75-27.94C618.11,680.19,624.46,692.89,629.07,706.82Z"/><path class="cls-3" d="M467.52,802.6h0c33.08,6,75.52-9.38,79.89,3.72,3.34,10-1.81,26.21-9.67,43h0L625,913.12c-.66,5.3-15.25,27.19-33.16,57s-61,117.4-79.59,188.37-79.59,279.22-96.83,324.32-210.92-78.26-229.48-122,12.6-70.3,35.81-130.66S400.84,952.91,406.4,929c5.47-23.49.17-170.1,0-174.93,32.19,26.18,61.13,48.42,61.13,48.42Z"/><path class="cls-3" d="M482.52,694.62c19.85,30,38.44,68.36,37.53,79.55-1.49,18.4-45.76-22.39-63.17-37.3,0,0-2.65-10.12-5.31-13.93l-25.65-21s-1.38-52.15,21.51-45.18C456.4,659.51,469.72,675.31,482.52,694.62Z"/></svg>