<svg id="Capa_1" data-name="Capa 1" xmlns="http://www.w3.org/2000/svg" viewBox="0 0 1388.22 1748.75"><defs><style>.cls-1{fill:#393a3a;}.cls-2{fill:#ffde73;}.cls-3{fill:#f7b897;}.cls-4{fill:#5cffc0;}</style></defs><title>code_1</title><circle class="cls-1" cx="694.11" cy="1054.64" r="694.11"/><path class="cls-2" d="M1110.9,975.61c9.53,8.44,18.85,22.32,9.72,49.95s-45.86,48.34-48.88,43.44,8.39-8.46,17-25.54-.28-33.09-8.89-42.63-.87-28.47,8.28-31.25S1106.49,971.73,1110.9,975.61Z"/><path class="cls-3" d="M1033.54,1141.66c11.91,76.89,22.13,111.93,15,121.87s-89.64,49.43-242.64-30.8c-15.15-11.31,33.19-107.69,19.55-186.43-1-18.5-26.49-32.21-39.5-46.76S797,976,825.06,982.05s46.55,2.1,50.11-39.6S896.41,822.79,853.29,809,821,776.46,826.22,774.8s19.53-.31,19.53-.31,86.55,20.27,101.3,52S1021.68,1064.77,1033.54,1141.66Z"/><path class="cls-2" d="M1083.16,912.23a15,15,0,1,1-18.34,10.65A15,15,0,0,1,1083.16,912.23Z"/><path class="cls-4" d="M744.71,896.5c-.34,16.78-4.07,29.49-11.17,38.26s-17.39,12.94-30.74,12.69-23.2-4.82-30-13.69-10.16-21.42-10-37.63l.46-22.34c.3-16.89,4.11-29.7,11.28-38.29S692,822.67,705.14,823s23.21,4.82,30,13.64,10.17,21.36,10,37.62Zm-28.66,24.88q4.07-6.78,4.51-21.06l.53-24.91c-9.42,19.23-19.07,39-24.81,51a15.83,15.83,0,0,0,6.89,1.62C709.06,928.18,713.37,926,716.05,921.38Zm.61-73c-2.69-3.86-6.59-5.92-11.89-6-5.67-.15-9.91,2-12.69,6.27s-4.33,11.1-4.7,20.38l-.57,29.48a74.81,74.81,0,0,0,.44,10.09C693.33,896,702.58,877.1,716.66,848.39Z"/><path class="cls-3" d="M574.62,1067.69c4.91,29-.16,197-2,202.63s-189,67.52-276.14,24.21c-16.17-9.73,24.52-137.2,40.18-179.47s62.09-161.67,89.72-209,94.93-128.7,137.11-139.68,89.2-9.38,83.2,11.87-71.92,15-85.48,66.06-21,108.42-21,108.42-8.82,34.53,13.5,35.36,54.46,3.16,55.57,23.29S569.65,1038.74,574.62,1067.69Z"/></svg>