<svg id="Capa_1" data-name="Capa 1" xmlns="http://www.w3.org/2000/svg" viewBox="0 0 34.51 34.53"><defs><style>.cls-1{fill:#1b162d;}</style></defs><title>be</title><path class="cls-1" d="M0,17.26A17.26,17.26,0,1,1,17.23,34.53,17.25,17.25,0,0,1,0,17.26Zm15.51-.93s0,0,0,0a.67.67,0,0,1,.21-.09,2.43,2.43,0,0,0,1.55-1.75,3.66,3.66,0,0,0-2.8-4.58,5.37,5.37,0,0,0-1.2-.12H6.19c-.31,0-.38.1-.37.39q0,6.81,0,13.62c0,.34.12.39.42.39h7.06a5.25,5.25,0,0,0,1.12-.1,3.9,3.9,0,0,0,3.35-3,5.44,5.44,0,0,0,.09-1.93C17.63,17.44,17,16.63,15.51,16.33Zm9.74,3.35h3.42c.27,0,.36-.09.37-.35a8.68,8.68,0,0,0-.15-2,4.41,4.41,0,0,0-3.31-3.75,6.67,6.67,0,0,0-2-.18,5,5,0,0,0-3.72,1.73A6.17,6.17,0,0,0,18.51,20a4.7,4.7,0,0,0,2.65,3.89,7.09,7.09,0,0,0,3.91.51,5.06,5.06,0,0,0,2.17-.68A3.31,3.31,0,0,0,28.9,21c0-.25,0-.37-.32-.36-.63,0-1.26,0-1.9,0-.19,0-.3,0-.34.26a1.41,1.41,0,0,1-1,1.07,3.46,3.46,0,0,1-1.8.19,2.19,2.19,0,0,1-2-2.09c0-.29,0-.39.33-.39C23,19.69,24.13,19.68,25.25,19.68Zm-1.44-7.3c.89,0,1.78,0,2.67,0,.27,0,.36-.09.35-.35s0-.78,0-1.17c0-.16,0-.26-.24-.26H21.13c-.18,0-.24.07-.24.25,0,.4,0,.8,0,1.2s.07.33.32.33Z"/><path class="cls-1" d="M11.4,17.76h1.75A1.51,1.51,0,0,1,14.75,19a3.27,3.27,0,0,1,.08.7A1.63,1.63,0,0,1,13,21.59H9.46c-.26,0-.36-.06-.36-.34,0-1.06,0-2.12,0-3.17,0-.25.06-.34.32-.34C10.09,17.77,10.74,17.76,11.4,17.76Z"/><path class="cls-1" d="M11.36,12.33H13.1a1,1,0,0,1,1.16.9,2.89,2.89,0,0,1-.07,1.57,1,1,0,0,1-.95.72H9.37c-.22,0-.26-.08-.26-.27,0-.89,0-1.79,0-2.68,0-.21.08-.26.27-.26Z"/><path class="cls-1" d="M23.86,17.76c-.69,0-1.37,0-2.06,0-.26,0-.29-.06-.22-.31a2.52,2.52,0,0,1,3.14-1.84,2.1,2.1,0,0,1,1.51,1.95c0,.24-.15.2-.28.2Z"/></svg>