<svg id="Capa_1" data-name="Capa 1" xmlns="http://www.w3.org/2000/svg" viewBox="0 0 34.49 34.47"><defs><style>.cls-1{fill:#1b162d;}</style></defs><title>ig</title><path class="cls-1" d="M34.49,17.21A17.25,17.25,0,1,1,17.27,0,17.24,17.24,0,0,1,34.49,17.21ZM17.17,8.15h0c-1.38,0-2.76,0-4.15,0a5,5,0,0,0-5.13,5q-.12,4.28,0,8.57a5,5,0,0,0,5.16,5c2.73,0,5.46.06,8.19,0a4.9,4.9,0,0,0,4.62-2.85,5.76,5.76,0,0,0,.57-2.51c0-2.64,0-5.28,0-7.92a5.92,5.92,0,0,0-.27-1.76,5,5,0,0,0-4.64-3.55C20.07,8.11,18.62,8.15,17.17,8.15Z"/><path class="cls-1" d="M17.16,25H13.4a4.8,4.8,0,0,1-1.46-.19,3.39,3.39,0,0,1-2.4-3.39c0-2.7,0-5.39,0-8.08a3.34,3.34,0,0,1,3.62-3.54c2.64,0,5.28,0,7.92,0a3.46,3.46,0,0,1,3.66,3.74q0,3.87,0,7.76A3.42,3.42,0,0,1,21.12,25c-1.32,0-2.64,0-4,0ZM17.1,12.62a4.76,4.76,0,1,0,4.84,4.63A4.78,4.78,0,0,0,17.1,12.62Zm6.09-.23a1.09,1.09,0,0,0-1.1-1.11A1.11,1.11,0,0,0,21,12.41a1.1,1.1,0,0,0,1.15,1.11A1.09,1.09,0,0,0,23.19,12.39Z"/><path class="cls-1" d="M20.18,17.38a3.08,3.08,0,1,1-3.07-3.09A3.08,3.08,0,0,1,20.18,17.38Z"/></svg>