<svg id="Capa_1" data-name="Capa 1" xmlns="http://www.w3.org/2000/svg" viewBox="0 0 32 31.99"><defs><style>.cls-1{fill:#1b162d;}</style></defs><title>in</title><path class="cls-1" d="M16,32A16,16,0,1,1,32,16.3,16,16,0,0,1,16,32ZM17.34,13.9c0-.49,0-.85,0-1.21s-.06-.31-.3-.3H14.32c-.27,0-.34.07-.34.34,0,3.56,0,7.11,0,10.67,0,.28.09.33.35.33.85,0,1.71,0,2.56,0,.34,0,.46-.06.46-.43,0-1.88,0-3.75,0-5.63a3.14,3.14,0,0,1,.26-1.32,2,2,0,0,1,2.1-1.12,1.72,1.72,0,0,1,1.59,1.46,4.54,4.54,0,0,1,.11,1v5.62c0,.2,0,.39.27.38,1,0,2,0,2.95,0,.19,0,.25-.06.25-.25,0-2.53.07-5.07,0-7.6a4,4,0,0,0-6-3.35A4.57,4.57,0,0,0,17.34,13.9Zm-5.62,4.2c0-1.78,0-3.56,0-5.35,0-.28-.07-.37-.37-.37-.94,0-1.88,0-2.83,0-.22,0-.31,0-.31.29q0,5.37,0,10.74c0,.28.11.31.34.31.93,0,1.86,0,2.79,0,.33,0,.38-.11.38-.4C11.72,21.59,11.72,19.85,11.72,18.1ZM12,8.81A2.07,2.07,0,1,0,10,10.9,2.1,2.1,0,0,0,12,8.81Z"/></svg>