<svg id="Capa_1" data-name="Capa 1" xmlns="http://www.w3.org/2000/svg" viewBox="0 0 39.83 39.83"><defs><style>.cls-1{fill:#fff;}.cls-2{fill:#1b162d;}</style></defs><title>ig-1</title><circle class="cls-1" cx="19.91" cy="19.91" r="19.91"/><path class="cls-2" d="M37.16,19.89A17.25,17.25,0,1,1,19.94,2.68,17.24,17.24,0,0,1,37.16,19.89ZM19.84,10.83h0c-1.38,0-2.76,0-4.15,0a5,5,0,0,0-5.13,5q-.12,4.29,0,8.58a5,5,0,0,0,5.16,5q4.09.07,8.19,0a4.9,4.9,0,0,0,4.62-2.85,5.76,5.76,0,0,0,.57-2.51c0-2.64,0-5.28,0-7.92a5.87,5.87,0,0,0-.27-1.76,5,5,0,0,0-4.64-3.55C22.74,10.79,21.29,10.83,19.84,10.83Z"/><path class="cls-2" d="M19.83,27.69H16.07a4.52,4.52,0,0,1-1.46-.2,3.38,3.38,0,0,1-2.4-3.39c0-2.69,0-5.38,0-8.07a3.34,3.34,0,0,1,3.62-3.54c2.64,0,5.28,0,7.92,0a3.47,3.47,0,0,1,3.66,3.75q0,3.87,0,7.76a3.42,3.42,0,0,1-3.62,3.68c-1.32,0-2.64,0-4,0Zm-.06-12.4a4.76,4.76,0,1,0,4.84,4.64A4.8,4.8,0,0,0,19.77,15.29Zm6.09-.22A1.09,1.09,0,0,0,24.76,14a1.11,1.11,0,0,0-1.13,1.13,1.12,1.12,0,0,0,2.23,0Z"/><path class="cls-2" d="M22.85,20.06A3.08,3.08,0,1,1,19.78,17,3.09,3.09,0,0,1,22.85,20.06Z"/></svg>