<svg id="Capa_1" data-name="Capa 1" xmlns="http://www.w3.org/2000/svg" viewBox="0 0 651.41 218.42"><defs><style>.cls-1,.cls-2,.cls-3{fill:#010453;}.cls-2{font-size:32px;}.cls-2,.cls-3{font-family:Jua-Regular, Jua;}.cls-3{font-size:26.56px;}</style></defs><title>components</title><path class="cls-1" d="M17.84,136C7.23,124.64,3.6,110.33,1,95.89-2,78.67,2.11,62.35,8.87,46.37,13.69,35,22.25,27.2,31,19.23,41.82,9.44,54.93,4.52,68.59,1.4a58.39,58.39,0,0,1,32,1.91C114.82,8.06,126.11,17,136.9,26.53c9.91,8.74,14.48,21.09,17.74,33.83,2.53,9.88,3,20,3.69,30,.53,7.62-2.21,15.3-5.93,22.19-5.72,10.59-11.61,21.11-20.19,29.79C121.72,153,110.3,161.83,95,164.82c-16.58,3.25-32.3,3.31-47.64-5.59A145.22,145.22,0,0,1,17.84,136ZM142.6,37.77c-1.88-2.53-3.45-5.39-5.71-7.53-7.81-7.4-16.66-13.38-25.94-18.89A55.5,55.5,0,0,0,66.6,5.26,94.36,94.36,0,0,0,29.36,24.77C16.84,35.51,10.18,48.6,6.14,63.75A62,62,0,0,0,3.89,83.08c.49,10.53,4,19.77,6.58,29.56,2.87,10.77,9.32,18.22,17.71,24.83,3.85,3,8.12,5.28,12.08,8.07,12.68,8.94,26.25,15.38,42.06,16.7,16.06,1.34,28.54-6,40.17-15.57,6.16-5,12.29-10.25,16.49-17.27,2-3.35,4.12-6.65,6.45-9.79a50.93,50.93,0,0,0,10-30.5c.1-8.91-1.3-17.69-3.2-26.47S148.16,45.17,142.6,37.77Z"/><path class="cls-1" d="M74.77,92.19c0,3.41,1.73,4.55,2.18,6.18a2.94,2.94,0,0,1-.44,2.25c-.56.76-1.53.39-2.28,0-6.46-3-12-7.46-17.5-11.9-3.22-2.59-2.68-6.79-4-10.17-.3-.78.4-2-1.12-2.3s-3.12-1.16-2.4-2.94c.81-2,2.5-1.3,4-.47a3.6,3.6,0,0,0,1.45.1c0-1.87-2-3.71-.13-5.42s3.29,1.17,6.42,1.41c-2.5-1.78-4.12-3.35-2.47-5.2,2-2.21,3.34.63,5,.91,6.41,1.08,10.82,5,15.4,9.12C82,76.62,84.59,79.38,83.92,84c-.08.57.38,1.21.48,1.83.26,1.71,3.9,2.25,2.13,4.22-1.5,1.67-4.13,1.28-6.13-.21-.81,1.45.65,1.39.86,2.06.47,1.56,3.34,2.83,1.45,4.52s-4,.63-5.43-1.44C76.83,94.33,76.22,93.79,74.77,92.19Z"/><path class="cls-1" d="M106.34,78.73c-.58-2.53-3-4.84.83-7.42,2.29-1.55.14-3.62-1.8-5-1.74-1.21-3-4.47-5.46-1.43C98.21,67,97.33,68.19,94.62,66c-3.25-2.58-.1-4.06.86-5,3.24-3.2,5.73-7.17,9.66-9.66,2.31-1.47,4.1-1.82,6.21.93,2.44,3.19,5.7,5.77,8.74,8.45,1.75,1.54,2.13,2.42.58,4.73C113.91,75.57,113.33,76.35,106.34,78.73Z"/><path class="cls-1" d="M97.6,97.17c2.35-2.43,5,1.38,7.57,2.62,5.54,2.7,6.34,7.32,2,11.53-1.92,1.84-1.51,6.22-5.94,5.54-5.13-.78-9.18-3.33-12.77-6.87-.33-.33-1-.58-.41-1C91.57,106,92.73,101.15,97.6,97.17Zm3.85,15.23c3.16-2.29,5.5-5.52,4.67-6.59-1.86-2.42-7.85-3.8-10.19-2.39-2.13,1.29-3.4,4-1.71,5.13C96.36,110,97.23,115.26,101.45,112.4Z"/><path class="cls-1" d="M78.57,50.67c.85,1.12.66,2.74-.32,3-1.84.43-1.22,3.81-4.35,2.76-5.32-1.79-10-4.87-15-7.13-3-1.35-1.1-3.79.14-5.7s1.63-2.92,4.22-.77c3.08,2.57,7.25,4,11.13,5.37C76,48.77,76.91,50.29,78.57,50.67Z"/><path class="cls-1" d="M24.91,30.73c3.35-2.71,6.41-1.41,8.51,1.38,2.81,3.74,2.35,9.6-.27,11.12-1.7,1-9.78-1.27-10.93-3C20.58,37.63,22,32.67,24.91,30.73Zm3,8c.24-1.25,3-1.15,1.82-3.35-.84-1.52-2.09-.55-3.08-.55-1.6,0-1.77,1.73-1.54,2.59a6.11,6.11,0,0,0,3.58,4.08c1.84.76,2.83-.64,3.76-1.92C30.91,37.77,29.44,40.54,27.92,38.7Z"/><path class="cls-1" d="M29,129.87c-.68-2.65-3.29-5.42.2-7.88,2.59-1.83,9.53-.78,10.72,1.86,1.53,3.42-.8,6.51-2.92,8.1C34.43,133.88,31.12,132.48,29,129.87Z"/><path class="cls-1" d="M67.67,145.45c-2.07.73-5.72,2.2-6.77-.69-.86-2.34-5.83-5.12-1.18-8.35,2.65-1.85,9-.63,10.52,1.84C71.34,140,70.21,143.79,67.67,145.45Z"/><path class="cls-1" d="M54.42,19.11c2.79-1,5.75-2.44,8.28.78,2.19,2.79,2.06,5.75-1,7.52-2.54,1.45-6,3.2-8.29-.21C51.72,24.72,51.48,21.65,54.42,19.11Z"/><path class="cls-1" d="M13.83,97.49c-1.63-2.18-2.91-4.51-1.73-7.3.85-2,1.45-4.12,4.52-4.16,2.81,0,4.82.72,6,3.17,1.12,2.3,1.46,4.74-.13,7-.46.65-1.31,1-1.85,1.63C16.82,102.22,16.73,102.22,13.83,97.49Zm2.07-7.73c-.31,1.39-1.61,2.93-.33,5,.76,1.21,2.69,2.26,3,1.39.64-1.73,2.44-3.48,1.3-5.63C19.15,89.1,17.93,89,15.9,89.76Z"/><path class="cls-1" d="M137,49.41c1.72,3.18,1.57,6.1-1.87,8.32-3,2-5.25,1.09-7-1.88-2.17-3.73.1-6.31,2.57-8.33S135.61,45.85,137,49.41Z"/><path class="cls-1" d="M124.53,113.12c4-2.56,7.39-1.79,10,2.63,1.73,3,0,5.25-2.65,6.85-3.21,2-6.22,1.48-8-1.78C122.5,118.3,120.31,115.08,124.53,113.12Zm1.73,6.72c1.64-1,4.76.35,4.87-2.75.06-1.49-1.78-2.37-3.19-2.14C124.76,115.47,127.49,118.36,126.26,119.84Z"/><path class="cls-1" d="M100.52,138.3c1.37,2.34.82,4.88-2.08,6.87-2.31,1.59-9,.84-9.71-1.43s-2.5-4.9.66-6.93C92.33,134.92,98.58,135.33,100.52,138.3Zm-7.59,5c1.37,0,2.82,1.41,4.06.2a3.38,3.38,0,0,0,.58-4.08c-1-1.85-2.85-.94-3.79-.4C92.52,139.71,92.58,141.46,92.93,143.26Z"/><path class="cls-1" d="M89.81,16.9c1.61,2.91.3,5.61-2.09,7.49-3.73,2.94-6.34.21-8.44-2.63s-.66-5.46,1.75-7C84.25,12.59,87.24,13.66,89.81,16.9Zm-6.56-.26a2.65,2.65,0,0,0-.86,3.72,2.18,2.18,0,0,0,3.18,1.21c1.68-.75,1.47-2.37,1.07-3.66C86.19,16.45,84.86,16.17,83.25,16.64Z"/><path class="cls-1" d="M141,86.28c-2.91,1.93-8.38,1.77-9.21-.54-.88-2.47-3-5.28,1.18-7.43,3.58-1.84,8-1.22,10.3,2.29C144.81,83,144.4,84,141,86.28Zm-5.72-5.69c-2.67,1.38-.59,3.21-.34,4.39.47,2.23,2.15.25,3.13,0,1.83-.48,1.76-2.43,1.06-3.5C138.28,80.24,136.54,80.29,135.25,80.59Z"/><path class="cls-1" d="M14.52,55.92c2.8-2.61,5.38-1.07,7.61.6,1.43,1.07.64,8.16-.69,9.13s-8.87.22-9.23-1.27C11.46,61.23,10.64,57.8,14.52,55.92Zm5,3.65c-1.11-1.54-2.26-1.74-3.62-1s-2.44,1.88-1.66,3.6a2.19,2.19,0,0,0,3.27,1.18A3.74,3.74,0,0,0,19.52,59.57Z"/><path class="cls-1" d="M109.84,25.21c3.4-2.46,6.14-.79,8.37,1.84s1.73,5.69-.78,7.31c-3.43,2.21-6.7.11-9.05-2.52C106.19,29.39,107.11,27,109.84,25.21Zm1.84,2.57c-1.67.85-1.36,1.68-.76,2.63A3.55,3.55,0,0,0,115.56,32c1.21-.52.49-2.41.07-3A3.39,3.39,0,0,0,111.68,27.78Z"/><text class="cls-2" transform="translate(30.46 210.67)">Lilypad</text><path class="cls-1" d="M371.54,80.45c-1.37,12.44-2.4,25.14-12.35,34.38-8.71,8.1-18.51,15.19-30.24,17.7C307.52,137.1,291.23,128,278.8,111c-2-2.75-2.77-6.21-3.83-9.48-2.3-7.1-5.69-14.23-5.29-21.62.55-10.28,0-21,7.38-30,7.55-9.21,15.5-16.11,28.12-18a84.28,84.28,0,0,1,36.58,2.41c11.14,3.22,20.37,8.88,24.66,20.33C369.52,62.9,371.73,71.41,371.54,80.45Zm-76,41.25c8.72,7,22.16,11.09,33.9,6.85,13.59-4.93,26.65-11.3,33.37-25.33,3.38-7,6.39-14.47,5.48-22.59a157.48,157.48,0,0,0-3-18.34c-1.29-5.53-3.94-10.91-8.21-14.51C349.84,41.69,341.81,36.85,332,35.5c-17.86-2.44-34.37-1.06-47.66,13.19C277,56.6,273.9,66.22,273.59,76.38c-.36,12.06,4.25,23.17,10.05,33.64,2.39,4.32,6.27,7.15,10.39,10.25-3.22-4-4.7-7.53.91-10.11,2.78-1.29,7.6.62,8.37,3C304.47,116.85,302,119.64,295.51,121.7Zm1-9.36a2.32,2.32,0,0,0-2.09,2.43,3.61,3.61,0,0,0,2.64,3.29c1.21.44,2.12-.77,2.23-2C299.46,114,297.86,113.24,296.51,112.34Z"/><path class="cls-1" d="M299.18,99c-4.18-9.61-3.41-18.86,1.21-28.22,2-4-2.36-5.85-4.83-7.39-2.95-1.83-7.34-2.74-8.8,1.59-1.28,3.79-2.89,7.87.34,12.41,3.9,5.49.48,10.58-6.35,10.88a2.74,2.74,0,0,1-2.94-2c-1.73-4.12-2.77-8.22.06-12.38a5.08,5.08,0,0,0,.47-2.85c-.29-6.27,2.91-10.78,7.38-14.59,3.65-3.13,7.85-3,11.46.1,2,1.72,3.62,3.73,5.95,5.19,2.62,1.64,3.17.92,3.21-1.59a11.79,11.79,0,0,0-.47-2.86c-1.79-7,3-16.65,9.45-19.6,2.1-1,3.43.93,5.2.57,4-.83,7.56,1.74,11.73,1.27,3.56-.4,4.74,4.07,6.58,6.4,1.41,1.77-1.51,4.55-3.1,6-2.78,2.56-4.78-.07-6.55-2.19-4.62-5.54-8.66-6.53-13.43-3.21a7.64,7.64,0,0,0-3.22,7.3c.28,2.36.88,4.75,5.09,3.68,5.12-1.3,10.34.66,14.89,3.37,5.18,3.1,9,7.75,12.82,12.32,5.92,7.09,2.51,19.86-4.73,27.41-6.07,6.34-13.8,9.27-21.89,11.42-4.57,1.21-13.55-4.13-16.39-9-.9-1.53-1.35-3.43-3.26-4.18ZM344.35,86C343.2,74.33,334.93,60.59,320,60.33c-7.52-.13-19.21,10.9-19.55,18.26-.55,12.17,11.3,28.08,21.31,28.62C330.41,107.68,344.28,94.64,344.35,86ZM283.63,75.64c-.38-5.14-1.41-10.21,2.06-13.67s8-2.15,12.62-.67c-4.69-5.77-8.68-6.65-12.31-3.1C279.8,64.29,278.62,70.93,283.63,75.64ZM309.82,59.4c-.81-11.21,3.06-18.11,15.35-17.78-5.16-2.65-9.61-1.5-13.48,2C306.86,48,306.6,53.38,309.82,59.4ZM278,81.19c2,.91-.34,5.11,3.38,4.82,1.86-.15,5.36-.23,4.95-4-.38-3.49-2.51-5-5.87-5.07C277.52,76.85,278.78,79.21,278,81.19Zm48.72-36.72c2.6.6,3,2.64,4.18,4.06.88,1,1.05,2.11,2.87,1.08a2.64,2.64,0,0,0,1.53-3.11C334.72,42.42,332.74,41.82,326.75,44.47Z"/><path class="cls-1" d="M356.18,84.28c3.64-.18,5.94,1.81,5.95,4.73,0,3.32-1.81,6.46-5.93,6.19a5.89,5.89,0,0,1-5.68-6.08C350.45,85.62,353,84.05,356.18,84.28Zm3.19,4.94c.48-2.13-1.51-2.22-2.77-2.11-1.76.15-2.73,1.77-3.13,3.39s.88,1.77,2.14,1.81C357.63,92.37,359.26,92,359.37,89.22Z"/><path class="cls-1" d="M299.06,98.89a33,33,0,0,1,.26,4c-.07,1.42.81,3.36-.66,4.14-2.16,1.17-2.14-1.21-2.73-2.36s-3.7,1.53-2.92-3c1.06-6.24,4.7-.74,6.18-2.57Z"/><path class="cls-1" d="M360.16,74.26c1.35.11,2.58.31,2,1.32a8.69,8.69,0,0,1-6.51,4.63c-.8.09-1.48-.74-1.09-1.16C356.32,77.15,358.11,75.2,360.16,74.26Z"/><text class="cls-2" transform="translate(239.6 210.67)">Vibe</text><text class="cls-2" transform="translate(306.18 210.67)">Sensor</text><text class="cls-2" transform="translate(480.34 210.67)">Inclinometer</text><path class="cls-1" d="M623.4,85.15c.71,12-4.85,25.11-5.71,38.63-.49,7.77-8.89,10.82-29.5,12-15.93.89-31.8,2-47.87,2.44-5.87.14-11.91.14-16.39-4.55-8-8.36-8.89-16.47-8.74-25,.15-8.14-1.26-16.36-.78-24.48.81-13.64,2.56-27.23,3.93-40.84.49-5,6-7.52,16-8.56,6.64-.69,13.94-1.59,20-.87,19.06,2.27,39.43-1.6,57.67,5.79a12.74,12.74,0,0,1,6.58,5.13C628.63,57.8,624.86,70.65,623.4,85.15Zm-79.88,49.44c4.16.13,8.76.18,13.32.24,10.09.14,19.45-1.35,29.65-1.15,10.54.21,21.54-2.89,22.35-8.73,1.4-10.11,4.92-20,3.47-30.39-1.73-12.42-.33-24.74,2.39-36.94,1.65-7.41-.9-11.9-9.81-14A139.72,139.72,0,0,0,585.62,41c-11.22-.94-22.38-1.66-33.44-3.55-13.12-2.23-23.15,1.24-27.33,7.74-1.94,3-1.57,6-2,9-1.32,8.44-3.44,16.92-2.45,25.42,1.7,14.64,5.09,29.31,5.87,44C526.68,131.9,529.38,133.65,543.52,134.59ZM621,63.52l-2.33-.28c-.8,8.9-2.1,17.77-.33,26.79ZM519.33,107.25c-1.64,5.17.45,9.79,1.83,14.41C519.57,117,524.59,112.47,519.33,107.25Z"/><path class="cls-1" d="M552.06,124.37c-.07,1.54-2.13,3.9-3.46,3.81a4.72,4.72,0,0,1-3.58-3.94c0-1.09,3.33-3,4.91-2.71A2.35,2.35,0,0,1,552.06,124.37Zm-2,.46c0-.54-.11-1.12-.87-1.07a2.89,2.89,0,0,0-2.42,1.43c-.19.37.62,1.17,1.46,1.21C549.48,126.48,549.52,125.44,550,124.83Z"/><path class="cls-1" d="M571.83,109c-.34,3.37-1.21,6.28-1.59,5.37-.72-1.72-2.26,5.74-2.59-.65-.56-10.87-.29-23.32-.54-34.75C567,72.14,568.72,70,570,68s1.92-3.45,1.55,4.35c-.44,9.29,0,17.78.36,25.93C572.08,101.75,571.56,105.94,571.83,109Z"/><path class="cls-1" d="M572.31,92.51c-1.53,1.28-3.24,1.95-3.15,1.26.18-1.31-3.74.92-1.49-2.2,3.84-5.32,8.85-10.73,13.1-16.07,2.54-3.17,4.54-2.83,6.2-2.78s2.62-.14-.65,3.1a98.38,98.38,0,0,0-9.8,12C575.28,89.45,573.3,91,572.31,92.51Z"/><path class="cls-1" d="M587.34,93c3.36-.42,6.25-1.37,5.32-1.73-1.73-.67,5.68-2.41-.72-2.57-10.88-.27-23.32.34-34.75.4-6.79,0-8.87,1.85-10.85,3.21s-3.39,2,4.39,1.43c9.28-.7,17.78-.48,25.94-.34C580.13,93.48,584.3,92.85,587.34,93Z"/><text class="cls-3" transform="translate(564.49 63.94)">x</text><text class="cls-3" transform="translate(590.51 71.95)">z</text><text class="cls-3" transform="translate(530.47 95.97)">y</text></svg>