<svg id="Capa_1" data-name="Capa 1" xmlns="http://www.w3.org/2000/svg" viewBox="0 0 538.39 329.46"><defs><style>.cls-1{font-size:32px;}.cls-1,.cls-2,.cls-3{fill:#010453;}.cls-1,.cls-3{font-family:Jua-Regular, Jua;}.cls-3{font-size:5.26px;}</style></defs><title>wire</title><text class="cls-1" transform="translate(135.57 321.71)">Wire-connection</text><path class="cls-2" d="M298.73,144.1c4,4.29,5.38,9.7,6.35,15.14,1.15,6.51-.42,12.66-3,18.7-1.82,4.3-5.05,7.23-8.36,10.24-4.07,3.69-9,5.55-14.18,6.73a22.13,22.13,0,0,1-12.06-.72c-5.39-1.8-9.65-5.18-13.72-8.77-3.74-3.3-5.46-8-6.7-12.77a62.88,62.88,0,0,1-1.39-11.32,15.8,15.8,0,0,1,2.24-8.38c2.16-4,4.38-8,7.62-11.24,4-4,8.27-7.35,14-8.48,6.26-1.23,12.19-1.25,18,2.11A54.51,54.51,0,0,1,298.73,144.1Zm-47.09,37.08a21,21,0,0,0,2.15,2.84,54.15,54.15,0,0,0,9.79,7.13,21,21,0,0,0,16.75,2.3,35.75,35.75,0,0,0,14.05-7.36c4.73-4.06,7.24-9,8.77-14.72a23.41,23.41,0,0,0,.84-7.29c-.18-4-1.49-7.46-2.48-11.16-1.08-4.06-3.52-6.88-6.68-9.37-1.46-1.14-3.07-2-4.56-3-4.79-3.38-9.91-5.81-15.88-6.31s-10.77,2.28-15.16,5.88A25.94,25.94,0,0,0,253,146.6a42.68,42.68,0,0,1-2.43,3.69,19.23,19.23,0,0,0-3.79,11.51,44.46,44.46,0,0,0,1.21,10C248.72,175.15,249.54,178.39,251.64,181.18Z"/><path class="cls-2" d="M277.24,160.64c0-1.29-.65-1.72-.82-2.33a1.11,1.11,0,0,1,.17-.85c.21-.29.57-.15.85,0a33.77,33.77,0,0,1,6.61,4.49c1.22,1,1,2.57,1.52,3.85.12.29-.15.75.42.86s1.18.44.91,1.11-.94.49-1.51.18c-.14-.08-.36,0-.54,0,0,.71.77,1.4,0,2.05s-1.25-.45-2.43-.54c.95.68,1.56,1.27.94,2s-1.27-.24-1.89-.35c-2.42-.4-4.08-1.9-5.81-3.44-1.2-1.06-2.18-2.11-1.92-3.85,0-.21-.15-.45-.18-.69-.1-.64-1.48-.85-.81-1.59a1.73,1.73,0,0,1,2.32.08c.3-.55-.25-.53-.33-.78-.18-.59-1.26-1.07-.55-1.71s1.52-.23,2.06.55A12.1,12.1,0,0,0,277.24,160.64Z"/><path class="cls-2" d="M265.33,165.72c.22,1,1.12,1.83-.32,2.8-.86.59-.05,1.37.68,1.88s1.15,1.69,2.06.54c.64-.8,1-1.24,2-.43,1.22,1,0,1.54-.33,1.9-1.22,1.2-2.16,2.7-3.64,3.64-.87.56-1.55.69-2.35-.35a23.74,23.74,0,0,0-3.3-3.19c-.66-.58-.8-.91-.21-1.78C262.47,166.91,262.69,166.62,265.33,165.72Z"/><path class="cls-2" d="M268.63,158.76c-.89.92-1.9-.52-2.86-1-2.09-1-2.4-2.76-.74-4.35.72-.69.57-2.35,2.24-2.09a8.64,8.64,0,0,1,4.82,2.59c.12.13.36.22.15.4C270.9,155.43,270.46,157.26,268.63,158.76ZM267.17,153c-1.19.87-2.07,2.09-1.76,2.49a3.86,3.86,0,0,0,3.84.9c.81-.48,1.29-1.51.65-1.93C269.09,153.93,268.76,151.93,267.17,153Z"/><path class="cls-2" d="M275.81,176.31c-.32-.42-.25-1,.12-1.12.69-.16.46-1.44,1.64-1,2,.67,3.76,1.84,5.67,2.69,1.13.51.41,1.43-.06,2.15s-.61,1.11-1.59.29a13.85,13.85,0,0,0-4.2-2C276.77,177,276.43,176.46,275.81,176.31Z"/><path class="cls-2" d="M296.06,183.84a2.06,2.06,0,0,1-3.21-.52c-1.06-1.41-.89-3.63.1-4.2.64-.37,3.69.48,4.12,1.15A3,3,0,0,1,296.06,183.84Zm-1.14-3c-.08.47-1.14.43-.68,1.27.32.57.79.2,1.16.2.61,0,.67-.65.58-1a2.27,2.27,0,0,0-1.35-1.53c-.69-.29-1.07.23-1.42.72C293.79,181.18,294.35,180.14,294.92,180.83Z"/><path class="cls-2" d="M294.51,146.42c.26,1,1.25,2-.07,3-1,.69-3.6.3-4.05-.7a2.58,2.58,0,0,1,1.1-3.06C292.47,144.91,293.72,145.43,294.51,146.42Z"/><path class="cls-2" d="M279.92,140.54c.78-.28,2.16-.83,2.56.26.32.88,2.2,1.93.44,3.15-1,.7-3.39.24-4-.69A2.35,2.35,0,0,1,279.92,140.54Z"/><path class="cls-2" d="M284.92,188.22c-1.05.37-2.17.93-3.12-.29-.83-1.05-.78-2.17.38-2.84,1-.54,2.25-1.21,3.13.08A2.15,2.15,0,0,1,284.92,188.22Z"/><path class="cls-2" d="M300.24,158.64a2.66,2.66,0,0,1,.66,2.75c-.33.76-.55,1.56-1.71,1.58a2.19,2.19,0,0,1-2.27-1.2,2.49,2.49,0,0,1,.05-2.65c.17-.24.49-.38.69-.61C299.12,156.86,299.15,156.85,300.24,158.64Zm-.78,2.92c.12-.53.61-1.11.13-1.88-.29-.46-1-.85-1.14-.53-.24.66-.92,1.32-.49,2.13C298.24,161.81,298.7,161.86,299.46,161.56Z"/><path class="cls-2" d="M253.77,176.79a2.11,2.11,0,0,1,.71-3.14c1.14-.74,2-.41,2.63.71.82,1.41,0,2.38-1,3.14S254.28,178.13,253.77,176.79Z"/><path class="cls-2" d="M258.46,152.74c-1.5,1-2.79.68-3.76-1-.66-1.12,0-2,1-2.59a1.94,1.94,0,0,1,3,.67C259.23,150.79,260.05,152,258.46,152.74Zm-.65-2.53c-.62.38-1.8-.14-1.84,1,0,.56.67.9,1.2.81C258.37,151.85,257.34,150.76,257.81,150.21Z"/><path class="cls-2" d="M267.52,143.24a1.84,1.84,0,0,1,.79-2.6c.87-.6,3.39-.31,3.66.55s.95,1.84-.25,2.61S268.26,144.36,267.52,143.24Zm2.87-1.88c-.52,0-1.07-.53-1.54-.07a1.3,1.3,0,0,0-.22,1.54c.39.7,1.08.35,1.43.15S270.52,142,270.39,141.36Z"/><path class="cls-2" d="M271.56,189.06a2.15,2.15,0,0,1,.79-2.83c1.41-1.11,2.4-.08,3.19,1a1.75,1.75,0,0,1-.66,2.67C273.66,190.69,272.54,190.28,271.56,189.06Zm2.48.1a1,1,0,0,0,.33-1.41.83.83,0,0,0-1.2-.45c-.64.28-.56.89-.41,1.38S273.43,189.33,274,189.16Z"/><path class="cls-2" d="M252.25,162.87c1.1-.73,3.17-.67,3.48.2s1.13,2-.45,2.81a2.92,2.92,0,0,1-3.88-.87C250.81,164.12,251,163.73,252.25,162.87Zm2.16,2.15c1-.52.23-1.21.13-1.66-.17-.84-.81-.09-1.18,0a.83.83,0,0,0-.4,1.32A1.35,1.35,0,0,0,254.41,165Z"/><path class="cls-2" d="M300,174.33c-1.06,1-2,.4-2.87-.23-.54-.4-.24-3.07.26-3.44s3.35-.09,3.48.48C301.14,172.32,301.45,173.62,300,174.33ZM298.09,173a.94.94,0,0,0,1.37.37c.54-.3.92-.71.63-1.36a.83.83,0,0,0-1.24-.44A1.42,1.42,0,0,0,298.09,173Z"/><path class="cls-2" d="M264,185.92c-1.28.93-2.31.3-3.16-.69a1.77,1.77,0,0,1,.3-2.76c1.29-.83,2.53,0,3.42.95S265,185.24,264,185.92Zm-.69-1c.63-.32.51-.63.29-1a1.34,1.34,0,0,0-1.76-.58c-.45.19-.18.91,0,1.15A1.28,1.28,0,0,0,263.31,185Z"/><path class="cls-2" d="M107.24,51.93a12.51,12.51,0,0,1,2.19-8.72c2.18-3.12,5-5.79,9.51-6a30.47,30.47,0,0,1,7.14.06c2.61.5,4.19,2.14,5.59,4.06a18.54,18.54,0,0,1,3.28,13c-.38,4.05-2.83,6.89-6.31,8.79a43.89,43.89,0,0,1-4.95,2.21c-5.84,2.33-13.13-2.09-15.1-6.52C107.59,56.53,107.6,54.22,107.24,51.93Zm12.49,12.86c3.57.43,9.07-2.86,11.19-4.89a9.3,9.3,0,0,0,2.83-7c0-2.86.16-5.78-1.31-8.26-3.32-5.58-8-7.94-14.68-6s-10.91,10.5-9.13,17.88C109.74,61.06,115.55,65,119.73,64.79Z"/><path class="cls-2" d="M121.14,55.54c-1.35,0-4.61-2.26-4.71-3.56A5.35,5.35,0,0,1,118,48.3c1.46-1.78,2.37-1.78,4.42-.62.85.48,1.34,1.36,2.35,1.67.53.16.36,1.09,0,1.51a12.47,12.47,0,0,0-1.28,2.87A2.29,2.29,0,0,1,121.14,55.54Zm-1.73-1.71c.52-1.18,1.7-2.07,1.73-3.46C120.49,51.5,119.41,52.41,119.41,53.83Z"/><path class="cls-2" d="M122.32,43.07c-.59.3-.16,1.62-1.47,1.28-.62-.16-1.15.24-1.68.45-1.2.47-1.64-.46-2-1.17-.43-.94.48-.85,1.07-1.08s1.4-.23,1.84-.88a1.44,1.44,0,0,1,1.56-.45C122.49,41.43,121.87,42.4,122.32,43.07Z"/><path class="cls-2" d="M128.55,51.58c-1.34,0-2.14-1.31-2.15-3.15a1.84,1.84,0,0,1,1.83-2c.87-.08,1.8,2.16,1.67,4C129.84,51.26,129.41,51.87,128.55,51.58Zm-.32-.47a3.63,3.63,0,0,0-.61-3.1C127.5,49,127,50.07,128.23,51.11Z"/><path class="cls-2" d="M111.53,46.6c0-1.48.54-2,1.71-2,1.58,0,1.57,1.38,1.83,2.24s-.55,1.53-1.46,1.62A2,2,0,0,1,111.53,46.6Z"/><path class="cls-2" d="M112.27,50.92c1.75-.18,1.73,1.24,1.84,2.25a1.62,1.62,0,0,1-1.36,2c-1,.12-2.3-1.24-2.28-2.55A1.7,1.7,0,0,1,112.27,50.92Zm.25,3.28c.38,0,.78-.15.59-.38-.43-.55.11-1.55-.78-1.74-.29-.06-.76.42-.78.9C111.53,53.68,112.05,54,112.52,54.2Z"/><path class="cls-2" d="M120.26,61.49a1.4,1.4,0,0,1-1.82-1.25c0-.78.68-1.29,1.57-1.42a3.36,3.36,0,0,0,1.48-.55c1-.72,1.33-.46,1.67.65C123.74,60.88,123.11,61.5,120.26,61.49Zm.36-.66c.76.18,1.21-.51,1.77-1a.5.5,0,0,0,0-.46c-.63-.6-1.18.35-1.81.13a.38.38,0,0,0-.31.07c-.3.28-1,.26-1,.75S120,60.81,120.62,60.83Z"/><path class="cls-2" d="M129.29,58.51c-1.26.1-2.19-.48-2.16-1.67A2.51,2.51,0,0,1,129,54.28c.9-.22,2.1,1.25,2,2.43S130.63,58.67,129.29,58.51Zm-1.56-1.83c0,1,.62,1.11,1.16,1.13s1.38-.48,1.33-1.08-.49-1.55-1.41-1.48S128,56.2,127.73,56.68Z"/><path class="cls-2" d="M124.76,42.33c-.11-1.35.92-1.74,1.88-1.87s1.36.85,1.66,1.55-1.21,1.94-2,2C125.25,44,124.77,43.48,124.76,42.33Zm1.68-1a.8.8,0,0,0-.69.8c0,.72.61.86,1.09,1,.31.1.53-.27.53-.62C127.37,41.9,126.9,41.62,126.44,41.35Z"/><path class="cls-2" d="M116.5,59.23c-.08,1.35-1.14,2.41-2.14,2.23s-.78-1.32-1.41-1.8c.64-.6.71-2,1.9-1.73C115.56,58.06,116.82,58.05,116.5,59.23Zm-1.7,1.25a.86.86,0,0,0,.69-.95c0-.48-.13-.94-.64-1s-.78.63-.85,1S114.42,60.27,114.8,60.48Z"/><path class="cls-2" d="M125.66,59.53c-.5.36.13,1.41-.79,1.24s-.14-.83-.15-1.27a6.48,6.48,0,0,1,.62-2.49c.15-.4.14-1,.76-.75s.18.68,0,1.09c-.19.57-.44,1.2.27,1.71.42.3,1.06.85.45,1.3S126.25,59.66,125.66,59.53Z"/><path class="cls-2" d="M111.46,56.46c-.58-.12-1.29.45-1.72-.33,1.63-1.07,2.08-.89,2.47.95,0,.05,0,.11,0,.16.1.49,1,0,.88.72,0,.09-.27.14-.38.25-.57.57-1.14.22-1.63-.08S110.79,57.65,111.46,56.46Z"/><path class="cls-2" d="M125.87,44.56c-1.24,2-1.35,2-3.75,1.38,1.51-.22,1.83-.78,1-1.74-.07-.08-.4-.33-.06-.49a.6.6,0,0,1,.85.26C124.24,44.83,124.74,45.29,125.87,44.56Z"/><path class="cls-2" d="M511.84,201a82.55,82.55,0,0,1-28.43-2.46c-11.65-3-22.22-9.35-29.7-19.82-5.62-7.86-12.57-14.78-18.1-22.69a73.48,73.48,0,0,1-11.72-25.92c-.68-3-1.66-6-2.54-8.88-2.67-8.89-1-17.56.52-26.25,3.07-18.12,14.81-30.56,28.69-40.84,9.74-7.22,20.87-12.49,32.19-17.12a88.34,88.34,0,0,0,10.88-5.44c2.66-1.55,3.16-4.64,3.43-7.31.49-5.06,2.75-9.41,4.95-13.75,1.23-2.42.78-3.27-1.37-4.65-6.07-3.87-12.8-3.35-19.25-2.68-11.56,1.19-22.75,4.74-34,7.41a97.33,97.33,0,0,0-38.5,18.25c-10.73,8.53-22.61,15.56-33,24.58-3.86,3.34-5.39,8.43-9.08,11.84-5.41,5-7.73,12.61-14.26,16.69a4.83,4.83,0,0,1-3.67,1c-11-2.27-21.9.32-32.85.88-9.55.48-18.88,2.34-28.35,3.19-6.37.58-12.62,2.18-19.07,2.24-1.27,0-3,1.88-3.52-.42s1.81-2.58,3.29-2.7c4.1-.33,8.24-.75,12.31-.94,17-.77,33.59-4.6,50.57-5.38,5.57-.25,11-1.21,16.58.09,4.67,1.09,7.19-3.14,8.72-5.78,4.06-7,10-12.53,14.71-19a45.71,45.71,0,0,1,13-11.58c7.06-4.33,13.58-9.69,20.14-14.81C417,18.86,431.28,12.85,446.17,7.85c5-1.68,10.29-.77,15.37-2.7,7.13-2.69,14.72-3.82,22.35-4.89,8.32-1.17,15,1.76,21.74,5.61,1.67,1,.41,1.76.16,2.23-3.68,6.8-6.65,13.75-7.07,21.68-.14,2.58-2.93,3.81-5.17,4.88C478.17,42,462.46,48.94,448.8,59.18c-12.39,9.29-22.09,21.93-24.39,37.17a76.44,76.44,0,0,0,4.92,41.59c6.68,16,17.9,28,28.28,40.88,9.08,11.25,21.45,17.34,36.52,18.42,9.06.65,18.06.71,27.1.74a18.72,18.72,0,0,1,4,.22c8.24,1.76,10.48,4.85,10.62,16,.12,9.74,1.38,19.32,2.5,29,.34,2.92-.67,5.93-2.68,8.92-4.84,7.16-12,8-19.1,7.71-18.1-.8-36.21-.24-54.28-1-10.78-.48-21.56.81-32.32-.76-22.59-3.31-45.36-2.74-68.11-3.22-14.69-.31-29.27.91-43.9,1.24-15.86.35-31.41,3.44-47.11,5.09-1.72.18-3.61.67-3.76-1.46-.21-2.89,2.37-1.45,3.7-1.64q14.85-2,29.72-3.79c2.62-.31,5.3-.13,8-.25,19.57-.95,39.11-2.8,58.75-2,13.2.52,26.43.45,39.61,1.13,12.32.64,24.59,2.43,36.91,2.78,17.21.49,34.46-.21,51.66.28,7.26.21,14.53,1.08,21.81.78,6-.24,11.56-1.94,15.84-6.58a10.35,10.35,0,0,0,2.77-8.56q-1.44-13.31-2.91-26.63a85.46,85.46,0,0,0-1.11-9.76c-.71-3.12-3.42-4.28-6.39-4.38C521.38,200.87,517.38,201,511.84,201Z"/><path class="cls-2" d="M498.89,231.44c0-5.29,4.79-11.57,8.69-11.46,4.23.11,10.15,6.49,9.94,10.71-.22,4.48-6.58,10.33-11.13,10.25C503.23,240.89,498.86,235.36,498.89,231.44Zm14-1.51c-.67-2.66-1.42-6.35-5.38-7.54-2.17-.66-6.07,5.18-5.49,8.62.44,2.59,1.38,5.56,4.76,5.9S512.94,234.31,512.87,229.93Z"/><path class="cls-2" d="M445.66,42.1c-.45-3.84,2.87-3.61,4.61-4.81,2.57-1.79,6.05-2.74.81-5.84-3.85-2.28-2.77-6.11-1.13-9.4,1.87-3.76,5.16-5.89,9.28-4.92,3.26.77,5.46,3.06,5.74,7,.38,5.53-.6,9-7,10.57C453.58,35.8,449.82,39.5,445.66,42.1ZM456.82,21c-3.72-.63-5.78,1.07-5.61,4.68a6.11,6.11,0,0,0,6,6.17c2.77.23,5.06-.95,4.83-4.36S462.38,20.08,456.82,21Z"/><path class="cls-2" d="M428.56,46.12c-1.05-1.83,0-2.64.7-2.94,5-2.12,8.59-6.19,13-9.14,1-.67,1.87-1.66,2.84-.25s-.49,1.66-1.37,2.24C438.64,39.35,433.62,42.74,428.56,46.12Z"/><path class="cls-2" d="M346.55,89.52c-4,4.23-9.47,5.55-14.23,8.16A45.18,45.18,0,0,1,346.55,89.52Z"/><path class="cls-2" d="M477.39,236.63c5.37-3.23,10.08-2.85,14.85-1.48.69.2,1.57.73,1,1.77-.44.8-1.32,1.35-2.05.74C487.19,234.34,482.8,236.42,477.39,236.63Z"/><path class="cls-2" d="M449.09,234.94c3.68-1.45,7.46-.75,11.18-.94,1,0,1.58.37,1.5,1.43,0,.68-.13,1.07-1.13.84C456.85,235.43,452.86,236.63,449.09,234.94Z"/><path class="cls-2" d="M310.84,112.72c4-2.33,7.93-4.6,11.81-7,1.11-.7,1.48,0,1.89.58a1,1,0,0,1-.43,1.59l-12.89,5.63Z"/><path class="cls-2" d="M498.38,222A21.6,21.6,0,0,1,486.46,215l12.4,5.64Z"/><path class="cls-2" d="M414.12,234.91c4.09-.83,8.2-1.66,12.18.33A23.21,23.21,0,0,1,414.12,234.91Z"/><path class="cls-2" d="M310,234.51c-3.35.44-6.5-1.5-9.51.2-.45.25-1.53-.74-1.49-1.63,0-.54.61-1.06.95-1.59C302.9,233.56,307.35,230,310,234.51Z"/><path class="cls-2" d="M366.59,235.11c-4.17-.73-8.38.11-12.5-.51C358.34,233.1,362.58,231.62,366.59,235.11Z"/><path class="cls-2" d="M399.63,235.36c-3.68-.9-7.52-.06-11.19-1.14C392.29,232.51,396.07,232.28,399.63,235.36Z"/><path class="cls-2" d="M292.29,235.71l-12.14,2C283.93,235.23,287.84,233.6,292.29,235.71Z"/><path class="cls-2" d="M276.06,219.49c-.63,4.73-1.92,8.48-.44,12.3C271.93,228,272,225.27,276.06,219.49Z"/><path class="cls-2" d="M468.73,206c3.33.82,5.82,1.38,8.27,2.08,1.18.33,2.29,1.31,1.75,2.52-1,2.18-1.46-.52-2.28-.42C473.23,210.57,471.1,208.84,468.73,206Z"/><path class="cls-2" d="M350.15,114.38c2.23-1.95,4.46-3.91,6.71-5.84.49-.43,1.21-.84,1.67-.11a2,2,0,0,1-.72,3c-2.24,1.28-4.6,2.36-6.91,3.52Z"/><path class="cls-2" d="M405.35,43.21c-.85,4.62-5.92,5.07-8.15,8.32A20.72,20.72,0,0,1,405.35,43.21Z"/><path class="cls-2" d="M406,67.06l-8.39,6c1.79-3.5,4.07-6.25,7.53-7.26Z"/><path class="cls-2" d="M381,88.23c1.63-3.42,4.8-4.66,6-7.51.43-1,1.23-.74,2-.15a1.05,1.05,0,0,1-.1,1.91C386.31,84.14,384.48,86.8,381,88.23Z"/><path class="cls-2" d="M381.12,63.39c3.83-.93,4.82-6.42,11-6.33C387.93,60.18,385.22,62.89,381.12,63.39Z"/><path class="cls-2" d="M26.55,201A82.55,82.55,0,0,0,55,198.51c11.64-3,22.22-9.35,29.7-19.82,5.62-7.86,12.57-14.78,18.1-22.69a73.48,73.48,0,0,0,11.72-25.92c.67-3,1.66-6,2.54-8.88,2.67-8.89.95-17.56-.52-26.25-3.07-18.12-14.81-30.56-28.69-40.84C78.08,46.89,67,41.62,55.64,37a88.34,88.34,0,0,1-10.88-5.44C42.1,30,41.6,26.91,41.33,24.24c-.5-5.06-2.75-9.41-4.95-13.75-1.23-2.42-.78-3.27,1.37-4.65C43.82,2,50.54,2.49,57,3.16,68.56,4.35,79.75,7.9,91,10.57a97.39,97.39,0,0,1,38.5,18.25c10.72,8.53,22.61,15.56,33,24.58,3.87,3.34,5.4,8.43,9.09,11.84,5.41,5,7.73,12.61,14.26,16.69a4.82,4.82,0,0,0,3.67,1c11-2.27,21.9.32,32.85.88,9.55.48,18.88,2.34,28.34,3.19,6.38.58,12.63,2.18,19.07,2.24,1.27,0,3,1.88,3.53-.42s-1.81-2.58-3.29-2.7c-4.11-.33-8.24-.75-12.31-.94-17-.77-33.59-4.6-50.57-5.38-5.57-.25-11-1.21-16.58.09-4.68,1.09-7.19-3.14-8.72-5.78-4.06-7-10-12.53-14.71-19a45.84,45.84,0,0,0-13-11.58c-7.06-4.33-13.58-9.69-20.14-14.81-12.58-9.83-26.86-15.84-41.76-20.84-5-1.68-10.29-.77-15.36-2.7C69.72,2.46,62.12,1.33,54.5.26,46.18-.91,39.52,2,32.76,5.87c-1.67,1-.41,1.76-.16,2.23,3.68,6.8,6.64,13.75,7.07,21.68.14,2.58,2.93,3.81,5.17,4.88C60.21,42,75.93,48.94,89.59,59.18,102,68.47,111.68,81.11,114,96.35a76.44,76.44,0,0,1-4.92,41.59c-6.68,16-17.91,28-28.28,40.88-9.08,11.25-21.45,17.34-36.52,18.42-9.06.65-18.06.71-27.1.74a18.72,18.72,0,0,0-4,.22c-8.25,1.76-10.48,4.85-10.62,16-.12,9.74-1.38,19.32-2.51,29-.33,2.92.67,5.93,2.69,8.92,4.84,7.16,12,8,19.09,7.71,18.11-.8,36.22-.24,54.29-1,10.78-.48,21.56.81,32.32-.76,22.59-3.31,45.36-2.74,68.1-3.22,14.7-.31,29.28.91,43.91,1.24,15.86.35,31.4,3.44,47.11,5.09,1.72.18,3.6.67,3.76-1.46.21-2.89-2.37-1.45-3.71-1.64q-14.83-2-29.71-3.79c-2.62-.31-5.31-.13-8-.25-19.57-.95-39.11-2.8-58.76-2-13.19.52-26.42.45-39.61,1.13-12.31.64-24.58,2.43-36.9,2.78-17.21.49-34.46-.21-51.67.28-7.25.21-14.53,1.08-21.8.78-6-.24-11.56-1.94-15.84-6.58a10.35,10.35,0,0,1-2.77-8.56Q4,228.47,5.51,215.14a85.46,85.46,0,0,1,1.11-9.76C7.33,202.26,10,201.1,13,201,17,200.87,21,201,26.55,201Z"/><path class="cls-2" d="M39.5,231.44c0-5.29-4.79-11.57-8.69-11.46-4.23.11-10.16,6.49-9.94,10.71.22,4.48,6.58,10.33,11.13,10.25C35.16,240.89,39.52,235.36,39.5,231.44Zm-14-1.51c.67-2.66,1.42-6.35,5.38-7.54,2.16-.66,6.07,5.18,5.48,8.62-.43,2.59-1.37,5.56-4.75,5.9S25.45,234.31,25.52,229.93Z"/><path class="cls-2" d="M92.73,42.1c.44-3.84-2.88-3.61-4.62-4.81-2.56-1.79-6-2.74-.8-5.84,3.85-2.28,2.77-6.11,1.13-9.4-1.87-3.76-5.16-5.89-9.28-4.92-3.26.77-5.46,3.06-5.74,7-.39,5.53.6,9,7,10.57C84.81,35.8,88.57,39.5,92.73,42.1ZM81.57,21c3.72-.63,5.78,1.07,5.61,4.68a6.11,6.11,0,0,1-6,6.17c-2.77.23-5.06-.95-4.83-4.36S76,20.08,81.57,21Z"/><path class="cls-2" d="M109.83,46.12c1-1.83,0-2.64-.7-2.94-5-2.12-8.59-6.19-13-9.14-1-.67-1.87-1.66-2.84-.25s.49,1.66,1.37,2.24C99.74,39.35,104.77,42.74,109.83,46.12Z"/><path class="cls-2" d="M191.83,89.52c4,4.23,9.47,5.55,14.24,8.16A45.12,45.12,0,0,0,191.83,89.52Z"/><path class="cls-2" d="M61,236.63c-5.37-3.23-10.08-2.85-14.85-1.48-.69.2-1.58.73-1,1.77.44.8,1.32,1.35,2,.74C51.2,234.34,55.59,236.42,61,236.63Z"/><path class="cls-2" d="M89.3,234.94c-3.69-1.45-7.46-.75-11.18-.94-1,0-1.58.37-1.5,1.43,0,.68.13,1.07,1.13.84C81.53,235.43,85.53,236.63,89.3,234.94Z"/><path class="cls-2" d="M227.55,112.72c-4-2.33-7.93-4.6-11.81-7-1.11-.7-1.48,0-1.89.58a1,1,0,0,0,.43,1.59l12.89,5.63Z"/><path class="cls-2" d="M40,222A21.6,21.6,0,0,0,51.93,215l-12.4,5.64Z"/><path class="cls-2" d="M124.27,234.91c-4.1-.83-8.2-1.66-12.18.33A23.21,23.21,0,0,0,124.27,234.91Z"/><path class="cls-2" d="M228.35,234.51c3.35.44,6.5-1.5,9.51.2.45.25,1.53-.74,1.49-1.63,0-.54-.62-1.06-.95-1.59C235.49,233.56,231,230,228.35,234.51Z"/><path class="cls-2" d="M171.79,235.11c4.18-.73,8.38.11,12.51-.51C180.05,233.1,175.81,231.62,171.79,235.11Z"/><path class="cls-2" d="M138.75,235.36c3.69-.9,7.53-.06,11.2-1.14C146.09,232.51,142.32,232.28,138.75,235.36Z"/><path class="cls-2" d="M246.1,235.71l12.14,2C254.46,235.23,250.55,233.6,246.1,235.71Z"/><path class="cls-2" d="M262.33,219.49c.63,4.73,1.92,8.48.44,12.3C266.46,228,266.39,225.27,262.33,219.49Z"/><path class="cls-2" d="M69.66,206c-3.33.82-5.82,1.38-8.27,2.08-1.18.33-2.29,1.31-1.75,2.52,1,2.18,1.46-.52,2.28-.42C65.16,210.57,67.29,208.84,69.66,206Z"/><path class="cls-2" d="M188.24,114.38c-2.23-1.95-4.46-3.91-6.71-5.84-.5-.43-1.21-.84-1.67-.11a2,2,0,0,0,.72,3c2.24,1.28,4.6,2.36,6.91,3.52Z"/><path class="cls-2" d="M133,43.21c.85,4.62,5.92,5.07,8.15,8.32A20.78,20.78,0,0,0,133,43.21Z"/><path class="cls-2" d="M132.44,67.06l8.39,6c-1.79-3.5-4.08-6.25-7.53-7.26Z"/><path class="cls-2" d="M157.43,88.23c-1.63-3.42-4.81-4.66-6-7.51-.43-1-1.23-.74-2-.15a1.06,1.06,0,0,0,.11,1.91C152.08,84.14,153.91,86.8,157.43,88.23Z"/><path class="cls-2" d="M157.27,63.39c-3.83-.93-4.82-6.42-11-6.33C150.46,60.18,153.17,62.89,157.27,63.39Z"/><path class="cls-2" d="M282.13,111.74c.14,2.37-1,5-1.13,7.65-.1,1.54-1.76,2.15-5.85,2.38-3.16.17-6.3.4-9.49.48a4,4,0,0,1-3.24-.9,6.24,6.24,0,0,1-1.74-4.95c0-1.61-.25-3.24-.15-4.85.16-2.71.51-5.4.78-8.1.1-1,1.2-1.49,3.16-1.69a19.2,19.2,0,0,1,4-.18c3.77.45,7.81-.31,11.42,1.15a2.52,2.52,0,0,1,1.31,1C283.17,106.32,282.42,108.86,282.13,111.74Zm-15.83,9.8,2.64,0c2,0,3.85-.26,5.88-.22s4.26-.58,4.42-1.73c.28-2,1-4,.69-6a20.53,20.53,0,0,1,.48-7.32c.32-1.47-.18-2.36-2-2.76a27.45,27.45,0,0,0-3.82-.54c-2.22-.19-4.43-.33-6.63-.7-2.6-.45-4.58.24-5.41,1.53a4,4,0,0,0-.41,1.78,18.7,18.7,0,0,0-.48,5c.33,2.9,1,5.81,1.16,8.71C263,121,263.5,121.35,266.3,121.54Zm15.35-14.09-.46-.06a18.52,18.52,0,0,0-.06,5.31Zm-20.15,8.67a4.63,4.63,0,0,0,.37,2.85C261.55,118.06,262.55,117.15,261.5,116.12Z"/><path class="cls-2" d="M268,119.51c0,.31-.42.77-.68.76a.94.94,0,0,1-.71-.78c0-.22.65-.6,1-.54A.46.46,0,0,1,268,119.51Zm-.4.09c0-.1,0-.22-.17-.21a.58.58,0,0,0-.48.28c0,.08.12.23.29.24S267.49,119.72,267.59,119.6Z"/><path class="cls-2" d="M271.91,116.46c-.07.67-.24,1.24-.32,1.06-.14-.34-.44,1.14-.51-.13-.11-2.15-.06-4.62-.11-6.88a3.06,3.06,0,0,1,.58-2.17c.24-.37.38-.68.31.86-.09,1.84,0,3.53.07,5.14C272,115,271.86,115.86,271.91,116.46Z"/><path class="cls-2" d="M272,113.2c-.3.25-.64.38-.62.25s-.74.18-.29-.44c.75-1.05,1.75-2.13,2.59-3.18a1.23,1.23,0,0,1,1.23-.56c.3,0,.52,0-.13.62a19.6,19.6,0,0,0-1.94,2.37C272.59,112.59,272.2,112.89,272,113.2Z"/><path class="cls-2" d="M275,113.3c.67-.08,1.24-.27,1.06-.34-.35-.14,1.12-.48-.15-.51-2.15-.06-4.62.07-6.88.08a3,3,0,0,0-2.15.63c-.37.25-.67.4.87.29,1.84-.14,3.52-.1,5.14-.07C273.55,113.39,274.38,113.26,275,113.3Z"/><text class="cls-3" transform="translate(270.45 107.53)">x</text><text class="cls-3" transform="translate(275.61 109.12)">z</text><text class="cls-3" transform="translate(263.71 113.88)">y</text></svg>