<svg id="Capa_1" data-name="Capa 1" xmlns="http://www.w3.org/2000/svg" viewBox="0 0 2149.21 1482.38"><defs><style>.cls-1{fill:#eda800;}</style></defs><title>yellowback</title><path class="cls-1" d="M1444.81,1452.7c-120,46.55-246.28,37.08-363.57-19.55-48.23-23.29-70.23-33.8-114.69-68.42C891.4,1306.22,841.73,1263.16,736.27,1228c-93-31-286.65-65.36-425,71.28C86.91,1520.76,0,1469.33,0,1469.33V19.2C0-4.23,162.49-.56,179.81,1.62c56.55,7.11,113,24.08,167.65,44.91,123.3,47,250.16,76.3,377.86,86.06,130.21,9.94,262.09-26.25,390.68-49.91,73-13.44,146.83-23.87,220.58-18.27,78.84,6,153.23,37.9,230.12,59.84,112.94,32.24,228.09,48.28,343.27,53.21,57.7,2.47,115.45,2.12,173.14-.52,17-.78,64.73-15.77,78.62-2.29,14.43,14,7.27,78.28,7.27,98.22V748.8c0,14.1,10.63,416.16,0,420C1912.22,1261.21,1742.49,1337.25,1444.81,1452.7Z"/></svg>