<svg id="Capa_1" data-name="Capa 1" xmlns="http://www.w3.org/2000/svg" viewBox="0 0 431.57 459.8"><defs><style>.cls-1{fill:#eee;}.cls-2{fill:#494949;}</style></defs><title>dog-owner</title><path class="cls-1" d="M283.26,44.33s-42.48,120.78-155.11,127.8-174,184.77-87,256.17,350.18,25.31,385.33-178.36S302.33-68.47,283.26,44.33Z"/><path class="cls-2" d="M310.2,368.37c-4.38-3.41-8.48-6.38-12.31-9.65-6.22-5.32-13.37-9.46-19.25-15.16a84.2,84.2,0,0,1-7.86-9.27,78.13,78.13,0,0,0-6.12-6.63c-3.62-3.7-6.78-7.85-10-11.89-7-8.74-11.5-19.21-18.76-27.81a74.24,74.24,0,0,0-13-11.57c-11.94-8.81-24.5-16.76-34.62-27.93-5.42-6-9.65-12.6-13.78-19.4-3-4.9-5.67-10-9.4-14.42-3.52-4.2-6-9.18-9.31-13.6a2.64,2.64,0,0,1,.51-4.09c1.34-1,1.24-3.76.26-5.72-.22-.43-.77-1.21-1.29-.72-3.58,3.41-8.17,1.72-12.25,2.31a44.62,44.62,0,0,0-5.87,1.27c-4.41,1.25-5.5,2.37-8.37-2.6-2.66-4.6-4.47-9-2.86-14.5.51-1.78.49-5-2.83-5.77-.92-.23-1.39-1.14-1.73-2.09-2-5.51-6.19-8.44-11.63-10.16a35.63,35.63,0,0,1-10.17-5.61c-3.27-2.39-3.44-6.29-2.94-9.89.3-2.18,0-4.52,1.12-6.61a.87.87,0,0,0-.56-1.34c-1-.2-2-.34-2.68.39-1.31,1.45-2.18,2.87-4.61,1.2-.78-.53-3.18,1-4.7,1.89-9.06,5.06-16.07,12.05-19.88,21.87a71.16,71.16,0,0,0-1.93,7.22,9.72,9.72,0,0,1,5.46-2.66c1.78-.19,3-.09,4.08,1.21.74.9,1.45.77,2.4.4,3.78-1.48,6.32-.89,9,2.08.84.93,1.61,1.76,3,1.68,3.22-.17,5.13,1.57,6.38,4.41A40,40,0,0,1,96,181.78c.61,2.52-2,5.73-5.39,6.28-1.59.27-2.1.8-2.54,2.42-1.32,4.85-3.95,9.16-6.53,13.55a65.85,65.85,0,0,1,9.27-4.83c2.48-1,3.59-.16,4.61,1.42a13.37,13.37,0,0,0,3.36,3.67c4.1,3.05,5.77,7.88,8.45,12,1,1.46-1.34,4.42-3.63,4.49s-2.11.45-1.2,2.26c3.91,7.7,10.12,12.52,17.89,16s15.83,4.58,23.84,6.56c6.91,1.7,14,3.36,18.2,10.13a10.65,10.65,0,0,1,1.94,6.47c-.2,2.95-.18,5.92-1.15,8.71,1.17.46,1.53-.27,2-.66,1.06-.87,1.85-.86,2.27.57s1.69,2.24,2.37,3.47c1.21,2.17,1.13,4.13-.74,6-2.66,2.68-5.35,5.34-7.76,8.28-2.27,2.75-4.77,2.77-7.21.24,4.39,1.78,6.29-1,8.44-3.68a46,46,0,0,1,4.84-4.62c2.12-2,2.32-3.52.72-5.93-.25-.38-.41-.82-.63-1.23-.64-1.2-1-3.35-2.53-.45-.55,1-2.37.25-3.46,1.21-.35.31-.32-.61-.16-1.15,1-3.48,1.92-7.08,1.61-10.67-.57-6.59-4.95-10.35-10.7-12.73s-12.08-3.4-18.23-4.68c-9.37-1.94-18.29-5.2-25.68-11.4a28.27,28.27,0,0,1-8.78-13.28c-1.12-3.54-4.52-5.62-6.47-8.66-1.29-2-3.34-3.92-1.58-6.89.36,3.74,2.59,6.35,4.82,9a18.26,18.26,0,0,0,3,2.68c.76.59,2.14.27,2,2.11-.06,1,1.36,1.69,2.63.63,1-.81,2.73-.82,1.61-3-2.88-5.7-7.21-10.19-11.5-14.75-.86-.91-1.47-1-2.86-.65-5.51,1.44-9.43,5.17-13.91,9.11a45.59,45.59,0,0,1,5.49-10.44c4.33-6.13,5.23-12.86,4.27-20-.14-1,.31-4.12-3.2-2.77-1.06.41-4.49-.3-5.08-2.5-.53-1.94-1.07-.73-1.3-.26-1.75,3.49-4.91,5.53-8,7.4s-5.07,5.36-9.17,6.11c6.07,3.58,10.24,8.14,10,14.88-.17,4.21-2.68,7.93-5.47,11.34-3.08,3.76-7.14,5.93-11.26,8.09A7.39,7.39,0,0,0,51,223.76a36.62,36.62,0,0,1,13.25,5.49c.62.44,1,.25,1.68-.14,6.36-3.84,7.51-2.56,11.44,3.25A19.14,19.14,0,0,1,81,243.3c0,1.22.49,2.66-1.23,3.4s-2.57.06-3.52-1.15c-.78-1-1.67-2.35-3.11-1.74a3.69,3.69,0,0,0-2,3.48c-.18,4.64-1.09,9-4.26,12.69-.26.31-.26.41,0,.81,3.8,5.12,4.92,11.64,8.63,16.79,3.49,4.84,4,10.92,7,15.95,3.64,6.15,3.56,13.24,5.11,19.93a9.25,9.25,0,0,0,.67,2.11c2.82,5.63,4.75,11.66,7.78,17.22,1.84,3.38,4.89,5,8,6.55a111.7,111.7,0,0,1,13.13,8.41,3.62,3.62,0,0,1,1.62,4.18c-2.57-4.44-6.9-6.72-11-9.26-3-1.85-6.15-3.33-9.17-5.1s-4.37-5-5.74-8c-.47-1-.75-2.09-2.29-1.22-1.12.64-2.32-.14-3.5-.17-10.4-.25-19.46-3.29-26.91-11.22-4.61-4.91-5.07-10.83-6.55-16.63-.54-2.11-.23-4.28-.25-6.44a2.64,2.64,0,0,1,2.42-2.91c1.52-.3,2.94.18,3.36,1.82,1,4,4,6.88,5.92,10.41.8,1.5,2.74,2.35,4.42,2.7,4.61.95,9.27,1.6,13.91,2.39,1.66.29,2-.26,1.79-1.94-.59-6.13-4.1-11.16-6-16.77-3-8.53-7.9-16.08-11.46-24.31-.6-1.4-1.73-2.43-2.31-3.81-.59.17-.71.77-1.05,1.15-1.9,2.13-3.36,1.8-5.06-.8-5.36-8.14-8.13-17.34-10.75-26.57-.64-2.25-1-3.81-3.91-4.55-4.36-1.11-6.28-5.68-5.61-10.45a12.65,12.65,0,0,0-.32-5c-.26-.9-1.48-1.25-2.72-1.08-7.13,1-7.32.8-10.57-5.85-1.83-3.75-7-4.82-9.37-1.83-.81,1-1.8,3-3.91,1.44-1.86-1.36-2.88-2.7-1.75-5.18.62-1.36,0-2.95-1-4.17C5.9,194.32,5.8,190,8.93,185.5c.63-.9.8-2.23,1.58-2.9,1.8-1.54,3.37-2.77,6.29-1a34.63,34.63,0,0,0,12.76,4.74,19.68,19.68,0,0,1,9.68,3.83c-2.21-8-1.09-15.19-1-22.42a74.09,74.09,0,0,1,3.16-21.12,59.72,59.72,0,0,1,4.66-10c4.06-7.61,10.09-13.43,16.66-19,3.74-3.14,7.82-5.63,11.77-8.37a1.69,1.69,0,0,0,.86-2.18c-.15-.8,0-2.59,1.41-1.84,3,1.63,5.15-.69,7.66-1.2,1.14-.23,2.1-1.31,3.24-1.57,6.58-1.48,7.7-11.5,4.88-16.15a3.06,3.06,0,0,0-3.66-1.22c-1.52.55-2.1.12-2.24-1.64C86.3,78.76,83.9,74.87,81,71.3A5.46,5.46,0,0,1,80.05,69c-.3-1.18-.62-1.88-2.3-2-2.81-.28-3.52-3.13-4.44-5.29-2-4.58-1.38-9.29-.33-14a29.57,29.57,0,0,1,10.79-16.9,16.31,16.31,0,0,1,3.36-1.91c4.32-2,6.94-5.51,8.65-9.8,1.87-4.65,6.58-5.9,10.76-2.83,3.33,2.45,3.11,2.14,6.66-.33,5.13-3.57,9.62-8.17,15.29-10.8a32.91,32.91,0,0,1,21.83-2.33c2,.48,4.07.57,6.08.94a33.86,33.86,0,0,1,13.7,6.17c6.65,4.78,11.36,11,13,19.22,1.13,5.81,3.18,11.41,3.79,17.33.34,3.31.5,6.59,1.66,9.82,1.8,5.05,5.7,8.13,9.92,10.58,7,4.07,11.39,10.12,14.62,17.15,1.7,3.71.22,7.36-1.91,10.63A36.18,36.18,0,0,0,206.61,105a15.31,15.31,0,0,0,1.14,10.33c2.52,5.64.36,10-3.36,12.75-1.47,1.1-2.68,2.53-4.67,2.95,1.19,2.17,3.28,3.3,5,4.66a4.23,4.23,0,0,1,1.56,4.9,28.19,28.19,0,0,1-1.06,2.86c-.24.66-.34,1.24.65,1.46,5.1,1.17,9.37,4.31,14.33,5.94,6,2,11.67,4.65,17.58,6.81,7.11,2.59,14.33,4.88,21.45,7.45a236.38,236.38,0,0,1,28.8,12.25c4.67,2.43,9.43,4.63,14,7.33a24.78,24.78,0,0,1,10.7,12.76c2.05,5.36,5.14,10,7.66,15.06,2.38,4.74,4.43,9.64,6.75,14.41,4.3,8.86,8,17.94,11.45,27.18,2.45,6.62,5.55,13,8.64,19.36,2,4,5.54,7,8.23,10.53a72.8,72.8,0,0,1,6.25,8.95,3,3,0,0,1,.59,2.35c-.74,2.4,1.19,3.93,2.51,4.43,4.35,1.66,8.55,3,13.72,1.59a97.27,97.27,0,0,0,22.64-8.79,10.51,10.51,0,0,1,3.19-.85c1-.18,1.57.51,1.28,1.31-.74,2.06-1,4.36-2.83,5.93-3.18,2.72-6.29,5.51-8.55,9.11a7.63,7.63,0,0,1-1.67,1.52c-.34.29-.69.7-1.14.08-.31-.44-.37-.76.1-1.17,3.62-3.14,5.9-7.57,10-10.28.08,0,.24,0,.26-.09.51-1.62,3.14-2.76,1.91-4.51-.69-1-2.76.35-3.85,1.17-4.92,3.71-10.91,5.21-16.49,7-5.19,1.66-11.13,3.34-16.81.56a5.94,5.94,0,0,1-2.16-1.25c-2.39-3.19-4.32-1.85-5.92.63-1.47,2.25-3.93,3.05-5.89,4.57-1,.76-1.1,1.22-.25,2.38,4.15,5.65,9.18,10.5,13.93,15.6a13.62,13.62,0,0,1,2,2.74c.3.56.72,1.5,1.73,1,.8-.4,1.89-.5,1.91-1.77,0-.76.34-1.61.1-2.26-1.2-3.23.58-4.23,3.27-4.91,5.12-1.31,9.41-4.19,13.4-7.56.29-.24.61-.47,1.07,0,.27,1-.76,1.31-1.31,1.82A38,38,0,0,1,375.19,321c-1.65.59-1.59,1.26-1.48,2.56a5.38,5.38,0,0,1-1.7,4.85c-2.05,1.78-3.37,1.7-5.1-.36-5.39-6.39-10.54-13-16.37-19-1.69-1.73-1.51-4.35-4.1-5.63s-4.08-4.28-6.11-6.42a161,161,0,0,0-14.24-13,83.92,83.92,0,0,1-20.2-24.53c-3.92-7.14-7.27-14.61-11.31-21.68-6.46-11.32-16.48-18-29-21.44-7-1.91-13.93-3.94-20.87-6-7.9-2.28-14.49-7-22-9.9-3-1.17-6.13-2.05-9.2-3-1.19-.39-.9.62-1,1.15a9.36,9.36,0,0,0,2.53,8c8.28,7.89,14.28,17.67,22.1,25.91,3.89,4.11,7.72,8.32,11.4,12.58,4.95,5.71,10.71,10.57,15.64,16.23,6.19,7.11,11.3,14.84,14.43,23.9,1.64,4.75,4.79,9,6.92,13.57,3.83,8.32,9.69,15.42,13.83,23.53a144.08,144.08,0,0,0,8,14.35c4.77,7.16,7.94,15.39,14.22,21.55a4.93,4.93,0,0,1,1.79,4.52c-.27,1.51.84,2.37,1.74,3,5.71,4.28,10.71,9.62,17.34,12.57,6,2.68,11.49,6.42,17.73,8.62,2.78,1,3.69,3.27,3,6.34-1,4.21-1.4,4.31-5.9,4.27-7.4-.07-14.36-2.41-21.52-3.73-1.21-.22-2.16-1.42-3.5-1.35.1,2.34-1.89,4.76-4.88,5.27-2.12.35-2.79-1.41-3.7-3-2.85-4.88-4.83-10.2-7.93-15-1.32-2-1.69-4.69-3.41-6.61-.34-.38-.54-.9.11-1.11s.95,0,1.3.66c1.88,3.73,3.8,7.45,5.85,11.08s3.61,7.68,6.32,11c.91,1.12,1.65,1.65,3,.91s2.2-1.35,1.44-3.09c-.34-.78,0-1.85,0-3.17,3.21,1.54,6.09,3.15,9.37,3.76,6,1.12,11.94,2.56,18.07,2.48,1.25,0,3.3.33,3.61-1.78.27-1.91.72-3.86-1.74-5.07-5.4-2.67-10.6-5.72-16.07-8.3a51.85,51.85,0,0,1-15.3-10.54,56.75,56.75,0,0,0-5.93-4.71c-3,3.57-4.3,4.25-7.54,3.61,2.2-1.3,4.63-1.68,5.94-3.86,1.15-1.91,1.5-3.73,0-5.41-4.48-5-7.45-10.89-10.93-16.52-6.17-10-11.07-20.64-17.58-30.36-5.6-8.38-9.82-17.47-14.61-26.27a55.85,55.85,0,0,1-3.2-8A26.81,26.81,0,0,0,269.7,271c-3.23-4-6.3-8.22-9.71-12.09-3.1-3.51-6.53-6.74-9.88-10-5.93-5.8-11.12-12.27-16.74-18.34-5.8-6.27-10.3-13.64-16.39-19.65-2.59-2.55-5-5-5.83-8.8a12.51,12.51,0,0,1,.47-6.84c.45-1.31,1.22-1,1.43-.26.34,1.25,1.41,1.38,2.12,1.53a65.67,65.67,0,0,1,18.28,7.22c9.74,5.42,20.45,7.46,31,10.35,8.61,2.36,16.71,6.14,23.22,12.27a42.62,42.62,0,0,1,10.16,14.07,139.92,139.92,0,0,0,21,35c3.71,4.42,8.58,7.71,12.9,11.55s8.89,7.51,12.21,12.39c1.69,2.5,4.74,3.77,6.18,6.57.43.84.88.05,1.31-.18a21.26,21.26,0,0,0,8.48-8.21,4.07,4.07,0,0,0,0-4.73c-3.55-5.13-7-10.3-11.41-14.83a20.71,20.71,0,0,1-4.45-7.64c-3.33-9.51-8-18.44-11.34-28-2.7-7.87-7.26-15.07-10.53-22.76-2.71-6.36-6.59-12-9.67-18.13-1.73-3.44-2.29-7.42-5.37-10.23-5.09-4.63-10.37-8.87-17.06-11a24.5,24.5,0,0,1-5.77-2.7c-6.84-4.44-14.49-6.95-22.05-9.77-10-3.72-20.16-6.78-30.09-10.6-6.13-2.35-12.27-4.65-18.37-7.07-2.34-.92-4.66-3.89-6.54-2.93-1.47.75-2.48,3.82-3.85,5.76-3.52,5-7.06,10-10.55,15.06a43.12,43.12,0,0,1-6.9,8c-8.49,7.48-16.5,15.52-26.13,21.65-3.1,2-3.15,2.76-.77,5.39,2.6,2.88,4,6.56,6.55,9.42,3.91,4.41,6.67,9.58,9.61,14.57,2.1,3.59,4.31,7.11,6.55,10.6,4.72,7.36,10.77,13.55,17.3,19.28,6.74,5.92,14.23,10.84,21.47,16.12,6.78,4.95,13.55,10.05,18.56,16.94a92.88,92.88,0,0,1,6.25,9.75,100.77,100.77,0,0,0,7.5,11.68c5.76,7.75,12.65,14.57,18.78,22,4.73,5.73,9.42,11.48,15.63,15.63,7.42,4.95,14,11,21.41,16C309.77,365.74,309.91,366.9,310.2,368.37ZM126.45,132l-.08-.08a2,2,0,0,1-.82,2.46c-2,1.75-4,3.49-5.9,5.37-1.48,1.48-3,3.14-.94,5.31,2.35-1.31,3.73-3.91,6.36-4.89l-.07-.09c-.56,1.88-2.39,2.57-3.6,3.84-2.46,2.58-2.44,4.07.23,6.66a17.73,17.73,0,0,1,1.08-1.86A110.45,110.45,0,0,1,134.19,136c2.72-2.52,6.29-4.46,10-4.31a23.4,23.4,0,0,0,11.23-1.9,7.89,7.89,0,0,1-7.78,3.17c-5.23-.87-9.25.82-13,4.14a62.54,62.54,0,0,0-7.61,8.09c-1.74,2.21-3.66,4.34-4.75,7.06a1.87,1.87,0,0,0,.62,2.37c.54.46,1.34,0,1.66-.62,1.39-2.78,4-4.56,5.85-6.93,3.56-4.48,8.11-8.14,13.9-9.11,7.93-1.34,14.49-5.22,20.34-10.3s12.46-6.68,19.69-6.95c1.39-.05,3-.61,4.75.37-1.1.82-2,.38-2.9.43-3.71.22-7.5.21-11,1.35-4.33,1.39-7.86,4.23-11.46,7-4.49,3.5-9.11,6.9-15.09,7.89S137.35,141,133.1,145.4c-2.71,2.83-4.94,6.07-7.78,8.81a4.25,4.25,0,0,0-1,4.32c2,7.82,3.11,15.68,2.23,23.88-.44,4.1,2.6,7.62,5.14,10.78,1.38,1.73,3.33.84,4.55-.65a22.34,22.34,0,0,1,2.5-2.64,54.88,54.88,0,0,0,9.92-12.37,30,30,0,0,1,16.15-13.24,53.3,53.3,0,0,0,7.93-3.23c9.48-5.13,18.35-11.09,24.66-20.18a8.6,8.6,0,0,1,6.82-3.78c-6.32-4.32-10.08-10.24-13.39-16.2-2.43-4.37-6.27-5.23-9.84-5.18a18.77,18.77,0,0,0-14.6,7,19.64,19.64,0,0,1-11.08,7.1c3.43-2.63,7.5-4.38,10.37-7.79a17.07,17.07,0,0,1,2.9-2.93,25.66,25.66,0,0,1,7.18-3.44c2.57-.9,4.9-1.68,7.71-.52a20,20,0,0,0,4.59,1.31c-2.61-3.62-3.39-7.57-4.31-11.4a18.91,18.91,0,0,1-.2-7.53,81.62,81.62,0,0,0,1-15.13c0-2.51-.19-5.35,1.4-7.49,1.84-2.48,1.72-4.92.71-7.5-1.91-4.9-6.54-7.23-10.25-10.35-3.47-2.92-7.71-4.69-11.89-6.46-1.11-.47-2.55-1.56-3.3-.41-1,1.6.57,2.56,1.85,3.33a5.59,5.59,0,0,0,1.19.71c5.46,1.65,8.57,6.26,12.48,9.86.37.34.94.77.42,1.34-.52.28-.78,0-1-.27-4.34-4.48-8.44-9.23-14.87-11a2.77,2.77,0,0,1-1.68-3.5,7.71,7.71,0,0,0,.35-4c-.48-4.67-2-9.23-6-11.9a38.51,38.51,0,0,0-16.39-5.75c-4.12-.57-8.36-.28-12.47-.9-4.54-.69-9.19-1.48-12.81-4.79-2-1.82-3.87-3.81-6-5.48-4.71-3.71-8.27-2.57-10,3.09a11.67,11.67,0,0,1-5.82,7.48C84.79,31.43,79.94,35.29,77,41.05A44.64,44.64,0,0,0,73.61,51.3c-1.18,5,.14,9.34,2.75,13.52,1.21,1.94,2.77,1.43,3.89.36,1.9-1.83,4.21-3,6.24-4.54,2.26-1.75,5.36-2.76,6.42-5.66a3.26,3.26,0,0,1,2.83-2.24c2.83-.61,4.29,1.47,5.56,3.31,1,1.49,1.86,2.25,3.61.65,0,1.71-.83,2.57-1.83,2.64-1.53.11-2.08-1.31-2.76-2.44-2.39-4-4.23-4.09-6.9-.5s-6.91,5.39-10.43,8c-3.11,2.29-3.33,2.69-1,5.8,2.7,3.58,5,7.35,5.51,12,.18,1.67,1.13,2.18,2.8,2.24,3.9.14,6.86,2.6,10.94,4.33-3.29.42-4.79-1.82-7-2.49.84,4.84,2.4,9.31-.84,13.55a2.85,2.85,0,0,0,.94.15,8.11,8.11,0,0,0,1.3-.47c4.81-1.91,9-5.51,14.56-5.51,1.75,0,3.71-3.33,2.93-4.77-1-1.81-2.67-.63-4.07-.41-.44.07-.85.45-1.29.49-1.53.12-3.12.28-4.29-1.57a6.1,6.1,0,0,1,1.3-.17c7.51,1.16,11.85-2.77,14.92-9,.87-1.76.54-1.83-1.18-1.89-4.42-.18-6.58-2.24-5.67-6.51.72-3.33-.91-7.15,1.94-10,.12-.12.23-.42.16-.51-1.22-1.79-.4-4.76-3.47-5.53-2.43-.6-3.1.82-3.8,2.56-.19.49-.75,1.06-1.32.65s-.19-1,.06-1.53c1.39-3.17,3.21-4.11,6-3,2.12.82,5.19,5.85,4.06,7.31-1.87,2.41-1.55,5.08-2,7.71-1,6.08-.31,7.18,5.52,7.65,2.09.17,3.55.8,3.67,3.24a1.55,1.55,0,0,0,1.25,1.64c2.72.36,3.89,2.34,4.68,4.66a10.4,10.4,0,0,0,5.44,6.12c1.31.67,2.78,1,3.93,2,2.79,2.59,8.51,3,11.37.52,5.6-4.9,8-9.86,6.42-17.92a20.6,20.6,0,0,1,.15-7.22c.69-4.48,4.36-8.24,2.73-13.64,2.17,2.9,2.26,3,1.16,5.93-1.7,4.5-3.55,9.17-2.62,13.89.84,4.25.1,8.06-1,11.93a13.8,13.8,0,0,1-13,9.74c-3.59,0-6-2.24-8.88-3.66-3.19-1.57-5.83-3.55-6.71-7.32-.25-1.11-1.19-2.79-2-2.9-3.14-.42-4.45-2.26-4.7-6-2,4.14-3.51,7.48-6.41,9.78a2.85,2.85,0,0,0-1.17,3c.57,4-1.42,6.13-5.49,6-.58,0-1.35-.43-1.83.77,2.5,1.72,4.06,4.35,5.64,7a7.9,7.9,0,0,0,4.67,3.93,18.63,18.63,0,0,0,18.53-5.6c1.29-1.49,2.11-3.46,4-4.4-1,2.13-1.69,4.58-3.32,6-4,3.57-8.73,6.16-14.4,6.21-3.84,0-7.56-.69-9.94-3.88-1.41-1.91-2.61-4.06-3.91-6.09-1.84-2.84-3.12-3.17-6-1.67-5.53,2.85-11.42,4.87-17.14,7.27-2.43,1-4.66,2.57-7.49,1.76-.84-.24-1,.5-1.11,1-.33,1,.35,1,1,1-1.46,1.4-.36,2.78.15,4,3.19,7.85,7.76,14.94,12.4,22,.46.7.48,2.58,1.94,1.54,1.65-1.16-.23-1.94-.82-2.59a48.32,48.32,0,0,1-4.62-6.19c-3.75-5.86-6.18-12.44-9.07-18.77a.91.91,0,0,1-.16-.24c0-.07,0-.22,0-.25,1-.73,1.24.17,1.52.79,1.46,3.29,3.4,6.35,4.53,9.8,1.9,5.8,6.34,10,9.58,15,.56.85,1.46.73,2.29.79,5.27.34,10.36-.81,15.3-2.35,2-.63,2.71-.18,3.22,1.5.63,2,1.83,3.85,2.26,6,.11.54.32,2,1.6.86A100.69,100.69,0,0,0,126.45,132ZM186,63.74a69.27,69.27,0,0,0-1.07-21.49c-1.8-8.91-2.54-18.32-9.25-25.65a36.7,36.7,0,0,0-14.8-10.06c-5.79-2.1-11.9-2.36-18-2.87-5.65-.46-10.61,1.42-15.45,3.87a46.47,46.47,0,0,0-8.5,6.18c-2.09,1.74-4.65,3-6.91,4.7-1.15.84-1.26,1.76-.25,2.43,2.66,1.74,4.85,4.15,8.23,4.91,5.31,1.18,10.71.91,16,1.48a29.72,29.72,0,0,1,10.08,2.43A17.18,17.18,0,0,0,149.74,31a13.61,13.61,0,0,1,10.62,12.42c.18,3.31,1.58,5,4.45,6.09A54.94,54.94,0,0,1,186,63.74ZM39,172.8c.35,5.17.4,10.25,1.35,15.32.51,2.78,1.82,3.68,4.17,4a8,8,0,0,1,1.41.12c1.79.62,3.67,1.22,5.49.66,2.4-.74,1.18-3.29,2-4.73,2.44-4.34,3.25-9.44,6.43-13.45,1.49-1.87,3-4.17,2.82-6.54-.65-6.93,3-12.3,6.42-17.45,4.37-6.57,10.78-11.14,18.14-14.2,1.93-.8,1.8-1.78.78-3.44-4-6.47-8.5-12.64-11-19.92-1.18-3.39-1.25-3.4-4.16-1.32-11.14,8-21.65,16.46-27.49,29.47a63.61,63.61,0,0,0-5,16.68C39.6,162.85,40,167.94,39,172.8ZM8.37,191.17a7.62,7.62,0,0,0,.77,3.73c1,2.54,3.29,4.66,2.58,7.8-.3,1.35-.59,3.12,1,3.75,1.24.48,2.33-.79,3.31-1.53a6.42,6.42,0,0,1,9.72,1.65c.95,1.4,1.72,2.87,2.55,4.33,1.31,2.31,3.13,3.34,5.7,2.18,1.64-.74,4.13-1.06,4.81-.29,2.17,2.45,5.41,4,6.54,7.38.8,2.43,2.68,3.33,4.69,2,4.77-3.25,10.59-5.12,14.1-10,2.79-3.93,5.56-7.87,4.25-13.29a14.3,14.3,0,0,0-4-6.6c-4.34-4.59-6.31-3.39-9.24-.33-1.17,1.24-2.48,3.13-4.16,2.79-2.1-.41-4.23-.67-6.33-1-6-1-10.46-6.54-17-5.53-3.45-2.49-8.1-2.43-11.37-5.36a2.53,2.53,0,0,0-3.9.33C10.62,185.52,8.7,188,8.37,191.17ZM187.69,58.44c.52,2.84-.38,5.67.4,8.49s1,5.76-.37,8.35c-.68,1.31-1.4,2.46-1.3,3.94.34,5.19-.56,10.3-1.15,15.42-.78,6.79-.16,13.26,3,19.53,2.64,5.29,6.54,9.71,9.45,14.78,1.07,1.87,2.46,1.65,3.78.14a5.91,5.91,0,0,1,1-1c6.48-4.61,5.78-7.77,3.71-13.09-2.21-5.68-1.34-11.14,1.23-16.43,1.33-2.76,2.86-5.43,4.38-8.09a4.17,4.17,0,0,0,.52-3.21c-1.93-8-6.6-14-13.41-18.6C194.75,65.88,190.21,63.41,187.69,58.44Zm17.73,88.44c.06-.8-.43-.87-.9-.9A4.86,4.86,0,0,1,201,144c-2.39-3.89-3.4-1.8-4.48.74-.17.38-.53.49-.75.73-3.38,3.63-7.34,6.57-11.17,9.68a58.87,58.87,0,0,1-18.35,10.06A37.15,37.15,0,0,0,152.48,174a4.56,4.56,0,0,0-1.39,5.25c2,5.22,5.34,9.5,9.12,13.5,1.26,1.34,2.57,1.33,4,.25,2.19-1.63,4.26-3.41,6.45-5,3.29-2.39,5.58-5.73,8.65-8.29,4-3.33,8-6.7,11.14-10.9,4.15-5.57,8.26-11.16,11.84-17.12C203.32,150,204.42,148.42,205.42,146.88ZM79.25,245.39c1.44-5.33-1.93-9.23-4-13.49a5.56,5.56,0,0,0-8-2.31c-1,.7-1.15,2.28-2.55,2.71-.72.23-2,.43-1.63-.33,1-2.27-.87-2.28-1.87-2.91a22.12,22.12,0,0,0-7-3c-3.06-.69-4-.27-4.82,2.83-.86,3.27.78,6,1.56,9,2,7.72,4.47,15.22,8.86,22,2.08,3.21,2,3.32,4.2.26.33-.44.72-.52,1.08-.77a7.6,7.6,0,0,0,3.22-4.09c.84-2.86,1.77-5.72,1.69-8.75a3.35,3.35,0,0,1,2.57-3.73,2.89,2.89,0,0,1,3.86,1.18C77.2,245,78.44,245,79.25,245.39Zm7,81.53c1,.06,1.37.12,1.75.1,1.08-.06,2.47.68,3.12-.57.58-1.08-.54-2.06-.91-3.07-1.3-3.53-3.51-6.72-3.94-10.58-.26-2.28-1.31-3.41-3.83-3.27a18.77,18.77,0,0,1-5.47-.62c-5-1.27-10.78-.83-14-6.12-1.58-2.59-3.72-4.84-4.54-7.91-.27-1-.67-2.64-1.87-2.5s-1.36,1.7-1.55,3a14.88,14.88,0,0,0,.37,5.3c1.16,5.32,1.12,11.24,6.1,15,2.43,1.82,3.85,4.54,6.45,6.26C73.75,325.7,80.27,326.42,86.28,326.92Zm39.2-155.61c-.71-4.75-1.16-9.31-2.78-13.5-3-7.87-6.55-15.56-9.81-23.36-.53-1.26-1-1.73-2.52-1.26a33.22,33.22,0,0,1-9.78,1.91A1.62,1.62,0,0,0,99,136.75c-.36,3-1.47,5.85-1.16,8.86.27,2.58.4,5.44,2.77,7.06a90.12,90.12,0,0,0,8.22,4.6c4,2.16,8.92,2.77,11.6,7.09C121.86,166.63,122.45,169.46,125.48,171.31Zm-70.4,18.81c3.66-4,8.66-5.68,12.33-9.18,1.22-1.17,3.33-1.43,3.65-3.54,2.85.76,3.09-2.25,4.69-3.31,1-.65,1.44-3,2.47-2.46,3,1.6.1-1.92,1.51-1.54.27.07.69,0,.93.22,2.31,2.08,5.59,3,7,6.13,1.33,2.9.93,5.91,1,8.9,0,.64-.42,1.24.59,1.51,1.56.41,6.26-3.12,5.56-4.38-1-1.86-.91-3.94-1.76-5.79-1.42-3.1-3.21-5.49-7.14-4.85-1.18.19-1.89-.56-2.56-1.43-2.12-2.8-4.13-3.33-7.25-1.93-1.39.62-2.92.84-3.85-.37C71,166.4,69.55,167,67.9,167c-3.51.12-3.94,3.38-5.15,5.28a56,56,0,0,0-6.87,13.91C55.53,187.4,54.25,188.31,55.08,190.12ZM138,192.54a40.47,40.47,0,0,1,6.1-1.36c2.79-.39,5.62.57,8.32-.49,1.39-.54,2.46-.87,1.27-2.94s-2.78-3.93-3.2-6.4c-.11-.68-.24-1.75-1.1-1.88s-1.3.86-1.77,1.53C144.75,185,142.16,189.35,138,192.54ZM47.44,229.78c.23-2.5,3.21-5.85-2.12-6.66A4.32,4.32,0,0,1,44,220.91c-.71-2.57-1.75-3.51-4-4.65C39.42,225.41,40.62,227.6,47.44,229.78Zm158-90.33a1,1,0,0,0-.13-1.52c-.56-.58-.81.39-1.29.51-.81.19-1.61.41-2.4.68-1.49.51-2,1.36-.71,2.61.86.82,1.37,2.41,2.65,2.32,1.55-.12.74-2.11,1.62-3C205.5,140.73,205.37,140,205.44,139.45Zm-47,53.69c-.38,1.57-.66,2.78-1.08,4.56l3.66-2.54Z"/><path class="cls-2" d="M116.69,352a2.18,2.18,0,0,1,1.54,2.47c-.06,1.52-.27,3.55,1.51,4.06a3.86,3.86,0,0,0,4.59-2.57c1-2.45,2.53-4.65,3.21-7.25.53-2-1.07-3-1.91-4.07-4.84-6.11-6.15-13.58-8.42-20.68a34.71,34.71,0,0,1-.91-3.75c-.11-.52-1.11-1.21,0-1.58.85-.28,1.43.29,1.64,1.14.63,2.6,1.09,5.25,1.87,7.8,2,6.44,3.59,13.07,8.71,18a1.53,1.53,0,0,1,.27,1.81C127.21,350.87,127,355,124,358c-1.54,1.53-3.16,1.52-4.7,1.56-1.77.05-1.52-1.91-2-3.19C116.71,354.91,117.78,353.37,116.69,352Z"/><path class="cls-2" d="M117.05,315.8c1.44-1,2.08-2.55,2.87-4a26.81,26.81,0,0,1,6.19-7.32A59.77,59.77,0,0,0,136.68,293a74.53,74.53,0,0,0,8.44-15.49c.18-.49.38-1.15,1.11-.79a1,1,0,0,1,.45,1.48c-2.63,3.41-3.39,7.78-5.85,11.29-3.52,5.05-7.12,10.15-11.81,14.06a35.41,35.41,0,0,0-9.61,11.71C118.93,316.27,118.2,316.69,117.05,315.8Z"/><path class="cls-2" d="M150,272.68c1.29-.12,1.83.52,2.32,1.62,1.15,2.61,2.14,5.22,1.56,8.1-.29,1.47.52,2.76.36,4.17-.06.56,1.23,1.46-.32,1.64-.89.11-1.4-.51-1.4-1.4,0-1.4-.62-2.7-.39-4.16a11.91,11.91,0,0,0-.19-4.44c-.79-3.68-1.22-4.09-5-3.51-.55.09-1.12.08-1.66.19a.82.82,0,0,1-1-.7c-.13-.53.39-1.11.75-1C146.82,273.88,148.33,272.17,150,272.68Z"/><path class="cls-2" d="M125.07,140.19c-.17-2.66,2.09-4,3.26-5.94a25.38,25.38,0,0,1,9.14-9.44,16.63,16.63,0,0,1,6.35-1.66c8.22-1.09,16.06-3.18,23.2-7.65,3.56-2.23,7.78-3,11.79-4.06a5.48,5.48,0,0,1,4.52,1c-.12.42-.58,1-.93.7-3.08-2.48-5.92-.11-8.61.65-4.29,1.2-8.15,3.56-12,6-1.54,1-3.62,1.06-5.42,1.64a65.49,65.49,0,0,1-13.69,3.13c-6.38.61-10.25,4.72-13.46,9.77A31.62,31.62,0,0,1,125,140.1Z"/><path class="cls-2" d="M126.45,132c1.29-1.93,2.72-3.77,3.83-5.8,1.57-2.84,4-4,7-4.94,6.69-2,13.71-2.2,20.41-3.94,3.36-.87,6.43-2.87,9.63-4.35,4.31-2,8.53-4.32,13.58-3.72-2.46,1-5.11,1.28-7.63,2.08-4.19,1.33-7.69,4-11.74,5.58a59.6,59.6,0,0,1-12.93,2.93,59.75,59.75,0,0,0-14.69,3.64c-3,1.26-3.1,4.94-5.2,7-.69.69-.88,2-2.32,1.41Z"/></svg>